<?xml version="1.0" encoding="UTF-8" standalone="no"?>
<!DOCTYPE svg PUBLIC "-//W3C//DTD SVG 1.1//EN"
 "http://www.w3.org/Graphics/SVG/1.1/DTD/svg11.dtd">
<!-- Generated by graphviz version 14.1.5 (0)
 -->
<!-- Title: UMLClassOwnership Pages: 1 -->
<svg width="1135pt" height="1303pt"
 viewBox="0.00 0.00 1135.00 1303.00" xmlns="http://www.w3.org/2000/svg" xmlns:xlink="http://www.w3.org/1999/xlink">
<g id="graph0" class="graph" transform="scale(1 1) rotate(0) translate(4 1299.25)">
<title>UMLClassOwnership</title>
<polygon fill="white" stroke="none" points="-4,4 -4,-1299.25 1131,-1299.25 1131,4 -4,4"/>
<text xml:space="preserve" text-anchor="middle" x="563.5" y="-1268.45" font-family="Helvetica,sans-Serif" font-size="24.00">Jumpa Verse &#45; UML Class and Object Ownership Diagram</text>
<!-- hitBox -->
<g id="node1" class="node">
<title>hitBox</title>
<polygon fill="#dbeafe" stroke="none" points="981.88,-308.75 981.88,-397.75 1106.12,-397.75 1106.12,-308.75 981.88,-308.75"/>
<text xml:space="preserve" text-anchor="start" x="1026" y="-382.25" font-family="Helvetica,sans-Serif" font-weight="bold" font-size="10.00">hitBox</text>
<text xml:space="preserve" text-anchor="start" x="988.88" y="-356.25" font-family="Helvetica,sans-Serif" font-size="10.00">+ int x, y, w, h</text>
<text xml:space="preserve" text-anchor="start" x="988.88" y="-331.5" font-family="Helvetica,sans-Serif" font-size="10.00">+ hitBox(int,int,int,int)</text>
<text xml:space="preserve" text-anchor="start" x="1018.88" y="-318.75" font-family="Helvetica,sans-Serif" font-size="10.00">+ hitBox()</text>
<polygon fill="none" stroke="#334155" points="981.88,-308.75 981.88,-397.75 1106.12,-397.75 1106.12,-308.75 981.88,-308.75"/>
</g>
<!-- ground -->
<g id="node2" class="node">
<title>ground</title>
<polygon fill="#dcfce7" stroke="none" points="500,-303.38 500,-507.12 749.5,-507.12 749.5,-303.38 500,-303.38"/>
<text xml:space="preserve" text-anchor="start" x="563.25" y="-491.62" font-family="Helvetica,sans-Serif" font-weight="bold" font-size="10.00">ground_Class : hitBox</text>
<text xml:space="preserve" text-anchor="start" x="519" y="-465.62" font-family="Helvetica,sans-Serif" font-size="10.00">+ bool first_ground, small, medium, big</text>
<text xml:space="preserve" text-anchor="start" x="563.62" y="-452.88" font-family="Helvetica,sans-Serif" font-size="10.00">+ int divw, trapCount</text>
<text xml:space="preserve" text-anchor="start" x="581.25" y="-440.12" font-family="Helvetica,sans-Serif" font-size="10.00">+ bool trapFill</text>
<text xml:space="preserve" text-anchor="start" x="545.25" y="-427.38" font-family="Helvetica,sans-Serif" font-size="10.00">+ vector&lt;SDL_Rect&gt; ground</text>
<text xml:space="preserve" text-anchor="start" x="507" y="-414.62" font-family="Helvetica,sans-Serif" font-size="10.00">+ vector&lt;vector&lt;SDL_Rect&gt;&gt; groundUnder</text>
<text xml:space="preserve" text-anchor="start" x="519.38" y="-401.88" font-family="Helvetica,sans-Serif" font-size="10.00">+ SDL_Texture* groundTexture (shared)</text>
<text xml:space="preserve" text-anchor="start" x="530.25" y="-389.12" font-family="Helvetica,sans-Serif" font-size="10.00">+ SDL_Texture* ugTexture (shared)</text>
<text xml:space="preserve" text-anchor="start" x="538.12" y="-376.38" font-family="Helvetica,sans-Serif" font-size="10.00">+ int perboxwidth/perboxheight</text>
<text xml:space="preserve" text-anchor="start" x="507" y="-351.62" font-family="Helvetica,sans-Serif" font-size="10.00">+ ground_Class(..., SDL_Texture*, SDL_Texture*)</text>
<text xml:space="preserve" text-anchor="start" x="585" y="-338.88" font-family="Helvetica,sans-Serif" font-size="10.00">+ rebuild(): void</text>
<text xml:space="preserve" text-anchor="start" x="529.12" y="-326.12" font-family="Helvetica,sans-Serif" font-size="10.00">+ seterForElements(int,int,int,int): void</text>
<text xml:space="preserve" text-anchor="start" x="549.38" y="-313.38" font-family="Helvetica,sans-Serif" font-size="10.00">+ render(SDL_Renderer*): void</text>
<polygon fill="none" stroke="#334155" points="500,-303.38 500,-507.12 749.5,-507.12 749.5,-303.38 500,-303.38"/>
</g>
<!-- ground&#45;&gt;hitBox -->
<g id="edge1" class="edge">
<title>ground&#45;&gt;hitBox</title>
<path fill="none" stroke="#334155" d="M749.4,-338.42C749.4,-338.42 972.42,-338.42 972.42,-338.42"/>
<polygon fill="none" stroke="#334155" points="972.42,-341.22 980.42,-338.42 972.42,-335.62 972.42,-341.22"/>
<text xml:space="preserve" text-anchor="middle" x="872.88" y="-374.5" font-family="Helvetica,sans-Serif" font-size="10.00">inherits</text>
</g>
<!-- sdl -->
<g id="node13" class="node">
<title>sdl</title>
<path fill="#ccfbf1" stroke="black" d="M1115,-958.12C1115,-958.12 973,-958.12 973,-958.12 967,-958.12 961,-952.12 961,-946.12 961,-946.12 961,-898.38 961,-898.38 961,-892.38 967,-886.38 973,-886.38 973,-886.38 1115,-886.38 1115,-886.38 1121,-886.38 1127,-892.38 1127,-898.38 1127,-898.38 1127,-946.12 1127,-946.12 1127,-952.12 1121,-958.12 1115,-958.12"/>
<text xml:space="preserve" text-anchor="middle" x="1044" y="-944.62" font-family="Helvetica,sans-Serif" font-size="10.00">SDL resources</text>
<text xml:space="preserve" text-anchor="middle" x="1044" y="-931.88" font-family="Helvetica,sans-Serif" font-size="10.00">SDL_Window* window</text>
<text xml:space="preserve" text-anchor="middle" x="1044" y="-919.12" font-family="Helvetica,sans-Serif" font-size="10.00">SDL_Renderer* renderer</text>
<text xml:space="preserve" text-anchor="middle" x="1044" y="-906.38" font-family="Helvetica,sans-Serif" font-size="10.00">SDL_Texture* groundTex/ugTex</text>
<text xml:space="preserve" text-anchor="middle" x="1044" y="-893.62" font-family="Helvetica,sans-Serif" font-size="10.00">TTF_Font* font</text>
</g>
<!-- ground&#45;&gt;sdl -->
<g id="edge11" class="edge">
<title>ground&#45;&gt;sdl</title>
<path fill="none" stroke="#334155" stroke-dasharray="1,5" d="M741,-507.02C741,-650.89 741,-896.42 741,-896.42 741,-896.42 951.29,-896.42 951.29,-896.42"/>
<polygon fill="#334155" stroke="#334155" points="951.29,-899.22 959.29,-896.42 951.29,-893.62 951.29,-899.22"/>
<text xml:space="preserve" text-anchor="middle" x="872.88" y="-539.5" font-family="Helvetica,sans-Serif" font-size="10.00">uses shared textures</text>
</g>
<!-- trap -->
<g id="node3" class="node">
<title>trap</title>
<polygon fill="#ffedd5" stroke="none" points="516.5,0 516.5,-114.5 733,-114.5 733,0 516.5,0"/>
<text xml:space="preserve" text-anchor="start" x="573" y="-99" font-family="Helvetica,sans-Serif" font-weight="bold" font-size="10.00">trapSpike : hitBox</text>
<text xml:space="preserve" text-anchor="start" x="523.5" y="-73" font-family="Helvetica,sans-Serif" font-size="10.00">No extra data beyond hitBox dimensions.</text>
<text xml:space="preserve" text-anchor="start" x="557.62" y="-48.25" font-family="Helvetica,sans-Serif" font-size="10.00">+ trapSpike(int,int,int,int)</text>
<text xml:space="preserve" text-anchor="start" x="565.5" y="-35.5" font-family="Helvetica,sans-Serif" font-size="10.00">+ setterNew(int): void</text>
<text xml:space="preserve" text-anchor="start" x="523.5" y="-22.75" font-family="Helvetica,sans-Serif" font-size="10.00">+ render(SDL_Renderer*, float=0): void</text>
<text xml:space="preserve" text-anchor="start" x="546.38" y="-10" font-family="Helvetica,sans-Serif" font-size="10.00">+ updatePosition(int,int): void</text>
<polygon fill="none" stroke="#334155" points="516.5,0 516.5,-114.5 733,-114.5 733,0 516.5,0"/>
</g>
<!-- trap&#45;&gt;hitBox -->
<g id="edge2" class="edge">
<title>trap&#45;&gt;hitBox</title>
<path fill="none" stroke="#334155" d="M732.73,-57.25C863.07,-57.25 1065,-57.25 1065,-57.25 1065,-57.25 1065,-299.42 1065,-299.42"/>
<polygon fill="none" stroke="#334155" points="1062.2,-299.42 1065,-307.42 1067.8,-299.42 1062.2,-299.42"/>
<text xml:space="preserve" text-anchor="middle" x="872.88" y="-95.5" font-family="Helvetica,sans-Serif" font-size="10.00">inherits</text>
</g>
<!-- player -->
<g id="node4" class="node">
<title>player</title>
<polygon fill="#fee2e2" stroke="none" points="513.5,-132.88 513.5,-285.62 736,-285.62 736,-132.88 513.5,-132.88"/>
<text xml:space="preserve" text-anchor="start" x="582.75" y="-270.12" font-family="Helvetica,sans-Serif" font-weight="bold" font-size="10.00">player : hitBox</text>
<text xml:space="preserve" text-anchor="start" x="571.88" y="-244.12" font-family="Helvetica,sans-Serif" font-size="10.00">+ SDL_Rect character</text>
<text xml:space="preserve" text-anchor="start" x="524.25" y="-231.38" font-family="Helvetica,sans-Serif" font-size="10.00">+ float jumpVelocity, gravity, jumpPower</text>
<text xml:space="preserve" text-anchor="start" x="520.5" y="-218.62" font-family="Helvetica,sans-Serif" font-size="10.00">+ bool onGround, dashcooldown, dashstop</text>
<text xml:space="preserve" text-anchor="start" x="533.62" y="-205.88" font-family="Helvetica,sans-Serif" font-size="10.00">+ float ofsset, returnSpeed, fallOffest</text>
<text xml:space="preserve" text-anchor="start" x="520.5" y="-181.12" font-family="Helvetica,sans-Serif" font-size="10.00">+ player(int=150,int=100,int=0,int=0)</text>
<text xml:space="preserve" text-anchor="start" x="565.12" y="-168.38" font-family="Helvetica,sans-Serif" font-size="10.00">+ syncHitBox(): void</text>
<text xml:space="preserve" text-anchor="start" x="533.25" y="-155.62" font-family="Helvetica,sans-Serif" font-size="10.00">+ newPosition(int,int,int,int): void</text>
<text xml:space="preserve" text-anchor="start" x="538.88" y="-142.88" font-family="Helvetica,sans-Serif" font-size="10.00">+ Render(SDL_Renderer*): void</text>
<polygon fill="none" stroke="#334155" points="513.5,-132.88 513.5,-285.62 736,-285.62 736,-132.88 513.5,-132.88"/>
</g>
<!-- player&#45;&gt;hitBox -->
<g id="edge3" class="edge">
<title>player&#45;&gt;hitBox</title>
<path fill="none" stroke="#334155" d="M735.95,-209.25C853.78,-209.25 1023,-209.25 1023,-209.25 1023,-209.25 1023,-299.36 1023,-299.36"/>
<polygon fill="none" stroke="#334155" points="1020.2,-299.36 1023,-307.36 1025.8,-299.36 1020.2,-299.36"/>
<text xml:space="preserve" text-anchor="middle" x="872.88" y="-269.5" font-family="Helvetica,sans-Serif" font-size="10.00">inherits</text>
</g>
<!-- score -->
<g id="node5" class="node">
<title>score</title>
<polygon fill="#fef9c3" stroke="none" points="516.12,-709.25 516.12,-849.25 733.38,-849.25 733.38,-709.25 516.12,-709.25"/>
<text xml:space="preserve" text-anchor="start" x="608.62" y="-833.75" font-family="Helvetica,sans-Serif" font-weight="bold" font-size="10.00">Score</text>
<text xml:space="preserve" text-anchor="start" x="556.5" y="-807.75" font-family="Helvetica,sans-Serif" font-size="10.00">&#45; int score</text>
<text xml:space="preserve" text-anchor="start" x="523.12" y="-795" font-family="Helvetica,sans-Serif" font-size="10.00">&#45; float timeAccumulator</text>
<text xml:space="preserve" text-anchor="start" x="580.88" y="-770.25" font-family="Helvetica,sans-Serif" font-size="10.00">+ initialize(): void</text>
<text xml:space="preserve" text-anchor="start" x="562.12" y="-757.5" font-family="Helvetica,sans-Serif" font-size="10.00">+ update(float,bool): void</text>
<text xml:space="preserve" text-anchor="start" x="523.12" y="-744.75" font-family="Helvetica,sans-Serif" font-size="10.00">+ render(SDL_Renderer*,TTF_Font*): void</text>
<text xml:space="preserve" text-anchor="start" x="589.5" y="-732" font-family="Helvetica,sans-Serif" font-size="10.00">+ reset(): void</text>
<text xml:space="preserve" text-anchor="start" x="592.5" y="-719.25" font-family="Helvetica,sans-Serif" font-size="10.00">+ value(): int</text>
<polygon fill="none" stroke="#334155" points="516.12,-709.25 516.12,-849.25 733.38,-849.25 733.38,-709.25 516.12,-709.25"/>
</g>
<!-- gameover -->
<g id="node6" class="node">
<title>gameover</title>
<polygon fill="#fecaca" stroke="none" points="541.25,-525.5 541.25,-691 708.25,-691 708.25,-525.5 541.25,-525.5"/>
<text xml:space="preserve" text-anchor="start" x="595.12" y="-675.5" font-family="Helvetica,sans-Serif" font-weight="bold" font-size="10.00">GameOver</text>
<text xml:space="preserve" text-anchor="start" x="581.25" y="-649.5" font-family="Helvetica,sans-Serif" font-size="10.00">&#45; bool active</text>
<text xml:space="preserve" text-anchor="start" x="548.25" y="-636.75" font-family="Helvetica,sans-Serif" font-size="10.00">&#45; DeathCause deathCause</text>
<text xml:space="preserve" text-anchor="start" x="560.62" y="-624" font-family="Helvetica,sans-Serif" font-size="10.00">&#45; int savedFinalScore</text>
<text xml:space="preserve" text-anchor="start" x="589.5" y="-599.25" font-family="Helvetica,sans-Serif" font-size="10.00">+ reset(): void</text>
<text xml:space="preserve" text-anchor="start" x="548.25" y="-586.5" font-family="Helvetica,sans-Serif" font-size="10.00">+ trigger(DeathCause,int): void</text>
<text xml:space="preserve" text-anchor="start" x="582.38" y="-573.75" font-family="Helvetica,sans-Serif" font-size="10.00">+ isActive(): bool</text>
<text xml:space="preserve" text-anchor="start" x="568.5" y="-561" font-family="Helvetica,sans-Serif" font-size="10.00">+ cause(): DeathCause</text>
<text xml:space="preserve" text-anchor="start" x="582" y="-548.25" font-family="Helvetica,sans-Serif" font-size="10.00">+ finalScore(): int</text>
<text xml:space="preserve" text-anchor="start" x="574.12" y="-535.5" font-family="Helvetica,sans-Serif" font-size="10.00">+ causeText(): string</text>
<polygon fill="none" stroke="#334155" points="541.25,-525.5 541.25,-691 708.25,-691 708.25,-525.5 541.25,-525.5"/>
</g>
<!-- option -->
<g id="node7" class="node">
<title>option</title>
<polygon fill="#fae8ff" stroke="none" points="464.75,-916.5 464.75,-1082 784.75,-1082 784.75,-916.5 464.75,-916.5"/>
<text xml:space="preserve" text-anchor="start" x="566.25" y="-1066.5" font-family="Helvetica,sans-Serif" font-weight="bold" font-size="10.00">optionBoxes : hitBox</text>
<text xml:space="preserve" text-anchor="start" x="471.75" y="-1040.5" font-family="Helvetica,sans-Serif" font-size="10.00">+ SDL_Texture* textTexture/scoresTexture/exitTexture (owned)</text>
<text xml:space="preserve" text-anchor="start" x="541.5" y="-1027.75" font-family="Helvetica,sans-Serif" font-size="10.00">+ bool state/stateScores/stateExit</text>
<text xml:space="preserve" text-anchor="start" x="539.25" y="-1015" font-family="Helvetica,sans-Serif" font-size="10.00">+ SDL_Rect box/boxScores/boxExit</text>
<text xml:space="preserve" text-anchor="start" x="556.88" y="-1002.25" font-family="Helvetica,sans-Serif" font-size="10.00">+ string scoresText/exitText</text>
<text xml:space="preserve" text-anchor="start" x="584.62" y="-989.5" font-family="Helvetica,sans-Serif" font-size="10.00">+ int boxOffsetY</text>
<text xml:space="preserve" text-anchor="start" x="564" y="-964.75" font-family="Helvetica,sans-Serif" font-size="10.00">+ ~optionBoxes()</text>
<text xml:space="preserve" text-anchor="start" x="471.75" y="-952" font-family="Helvetica,sans-Serif" font-size="10.00">+ box_Initializer(SDL_Renderer*,TTF_Font*,string): void</text>
<text xml:space="preserve" text-anchor="start" x="532.12" y="-939.25" font-family="Helvetica,sans-Serif" font-size="10.00">+ render(SDL_Renderer*): void</text>
<text xml:space="preserve" text-anchor="start" x="551.62" y="-926.5" font-family="Helvetica,sans-Serif" font-size="10.00">+ stateHolder(...): void</text>
<polygon fill="none" stroke="#334155" points="464.75,-916.5 464.75,-1082 784.75,-1082 784.75,-916.5 464.75,-916.5"/>
</g>
<!-- option&#45;&gt;hitBox -->
<g id="edge4" class="edge">
<title>option&#45;&gt;hitBox</title>
<path fill="none" stroke="#334155" d="M767,-916.74C767,-745.65 767,-368.08 767,-368.08 767,-368.08 972.67,-368.08 972.67,-368.08"/>
<polygon fill="none" stroke="#334155" points="972.67,-370.88 980.67,-368.08 972.67,-365.28 972.67,-370.88"/>
<text xml:space="preserve" text-anchor="middle" x="872.88" y="-765.5" font-family="Helvetica,sans-Serif" font-size="10.00">inherits</text>
</g>
<!-- option&#45;&gt;sdl -->
<g id="edge12" class="edge">
<title>option&#45;&gt;sdl</title>
<path fill="none" stroke="#334155" stroke-dasharray="5,2" d="M784.75,-937.31C784.75,-937.31 951.02,-937.31 951.02,-937.31"/>
<polygon fill="#334155" stroke="#334155" points="951.02,-940.11 959.02,-937.31 951.02,-934.51 951.02,-940.11"/>
<text xml:space="preserve" text-anchor="middle" x="872.88" y="-962.5" font-family="Helvetica,sans-Serif" font-size="10.00">owns text textures</text>
</g>
<!-- login -->
<g id="node8" class="node">
<title>login</title>
<polygon fill="#fae8ff" stroke="none" points="16.88,-1169.75 16.88,-1258.75 287.38,-1258.75 287.38,-1169.75 16.88,-1169.75"/>
<text xml:space="preserve" text-anchor="start" x="117.25" y="-1243.25" font-family="Helvetica,sans-Serif" font-weight="bold" font-size="10.00">LoginScreen</text>
<text xml:space="preserve" text-anchor="start" x="23.88" y="-1217.25" font-family="Helvetica,sans-Serif" font-size="10.00">&#45; string username/password/message</text>
<text xml:space="preserve" text-anchor="start" x="77.5" y="-1204.5" font-family="Helvetica,sans-Serif" font-size="10.00">&#45; int activeField</text>
<text xml:space="preserve" text-anchor="start" x="23.88" y="-1179.75" font-family="Helvetica,sans-Serif" font-size="10.00">+ run(SDL_Renderer*,TTF_Font*): LoginScreenAction</text>
<polygon fill="none" stroke="#334155" points="16.88,-1169.75 16.88,-1258.75 287.38,-1258.75 287.38,-1169.75 16.88,-1169.75"/>
</g>
<!-- reg -->
<g id="node9" class="node">
<title>reg</title>
<polygon fill="#fae8ff" stroke="none" points="482.38,-1169.75 482.38,-1258.75 767.12,-1258.75 767.12,-1169.75 482.38,-1169.75"/>
<text xml:space="preserve" text-anchor="start" x="581.25" y="-1243.25" font-family="Helvetica,sans-Serif" font-weight="bold" font-size="10.00">RegisterScreen</text>
<text xml:space="preserve" text-anchor="start" x="489.38" y="-1217.25" font-family="Helvetica,sans-Serif" font-size="10.00">&#45; string username/password/confirmPassword/message</text>
<text xml:space="preserve" text-anchor="start" x="585.75" y="-1204.5" font-family="Helvetica,sans-Serif" font-size="10.00">&#45; int activeField</text>
<text xml:space="preserve" text-anchor="start" x="489.38" y="-1179.75" font-family="Helvetica,sans-Serif" font-size="10.00">+ run(SDL_Renderer*,TTF_Font*): RegisterScreenAction</text>
<polygon fill="none" stroke="#334155" points="482.38,-1169.75 482.38,-1258.75 767.12,-1258.75 767.12,-1169.75 482.38,-1169.75"/>
</g>
<!-- login&#45;&gt;reg -->
<g id="edge13" class="edge">
<title>login&#45;&gt;reg</title>
<path fill="none" stroke="#334155" d="M287.24,-1214.25C287.24,-1214.25 473.01,-1214.25 473.01,-1214.25"/>
<polygon fill="#334155" stroke="#334155" points="473.01,-1217.05 481.01,-1214.25 473.01,-1211.45 473.01,-1217.05"/>
<text xml:space="preserve" text-anchor="middle" x="384.5" y="-1217.5" font-family="Helvetica,sans-Serif" font-size="10.00">may call registration flow</text>
</g>
<!-- scoremenu -->
<g id="node10" class="node">
<title>scoremenu</title>
<polygon fill="#fae8ff" stroke="none" points="524,-1100.5 524,-1152 725.5,-1152 725.5,-1100.5 524,-1100.5"/>
<text xml:space="preserve" text-anchor="start" x="593.62" y="-1136.5" font-family="Helvetica,sans-Serif" font-weight="bold" font-size="10.00">ScoreMenu</text>
<text xml:space="preserve" text-anchor="start" x="531" y="-1110.5" font-family="Helvetica,sans-Serif" font-size="10.00">+ run(SDL_Renderer*,TTF_Font*): void</text>
<polygon fill="none" stroke="#334155" points="524,-1100.5 524,-1152 725.5,-1152 725.5,-1100.5 524,-1100.5"/>
</g>
<!-- scoremenu&#45;&gt;sdl -->
<g id="edge14" class="edge">
<title>scoremenu&#45;&gt;sdl</title>
<path fill="none" stroke="#334155" stroke-dasharray="1,5" d="M725.44,-1126.25C849.48,-1126.25 1044,-1126.25 1044,-1126.25 1044,-1126.25 1044,-967.77 1044,-967.77"/>
<polygon fill="#334155" stroke="#334155" points="1046.8,-967.77 1044,-959.77 1041.2,-967.77 1046.8,-967.77"/>
<text xml:space="preserve" text-anchor="middle" x="872.88" y="-1129.5" font-family="Helvetica,sans-Serif" font-size="10.00">renders and reads player.csv</text>
</g>
<!-- colors -->
<g id="node11" class="node">
<title>colors</title>
<polygon fill="#e0f2fe" stroke="none" points="0,-960.75 0,-1037.75 304.25,-1037.75 304.25,-960.75 0,-960.75"/>
<text xml:space="preserve" text-anchor="start" x="108.25" y="-1022.25" font-family="Helvetica,sans-Serif" font-weight="bold" font-size="10.00">mainMenuColor</text>
<text xml:space="preserve" text-anchor="start" x="76.75" y="-996.25" font-family="Helvetica,sans-Serif" font-size="10.00">+ static SDL_Color background</text>
<text xml:space="preserve" text-anchor="start" x="7" y="-983.5" font-family="Helvetica,sans-Serif" font-size="10.00">+ static SDL_Color buttonNormal/buttonHover/buttonActive</text>
<text xml:space="preserve" text-anchor="start" x="95.5" y="-970.75" font-family="Helvetica,sans-Serif" font-size="10.00">+ static SDL_Color text</text>
<polygon fill="none" stroke="#334155" points="0,-960.75 0,-1037.75 304.25,-1037.75 304.25,-960.75 0,-960.75"/>
</g>
<!-- colors&#45;&gt;option -->
<g id="edge15" class="edge">
<title>colors&#45;&gt;option</title>
<path fill="none" stroke="#334155" stroke-dasharray="1,5" d="M303.94,-999.25C303.94,-999.25 455.44,-999.25 455.44,-999.25"/>
<polygon fill="#334155" stroke="#334155" points="455.44,-1002.05 463.44,-999.25 455.44,-996.45 455.44,-1002.05"/>
<text xml:space="preserve" text-anchor="middle" x="384.5" y="-1002.5" font-family="Helvetica,sans-Serif" font-size="10.00">menu palette</text>
</g>
<!-- main -->
<g id="node12" class="node">
<title>main</title>
<path fill="#e0f2fe" stroke="black" d="M234.38,-619.75C234.38,-619.75 69.88,-619.75 69.88,-619.75 63.88,-619.75 57.88,-613.75 57.88,-607.75 57.88,-607.75 57.88,-572.75 57.88,-572.75 57.88,-566.75 63.88,-560.75 69.88,-560.75 69.88,-560.75 234.38,-560.75 234.38,-560.75 240.38,-560.75 246.38,-566.75 246.38,-572.75 246.38,-572.75 246.38,-607.75 246.38,-607.75 246.38,-613.75 240.38,-619.75 234.38,-619.75"/>
<text xml:space="preserve" text-anchor="middle" x="152.12" y="-606.25" font-family="Helvetica,sans-Serif" font-size="10.00">main.cpp::main()</text>
<text xml:space="preserve" text-anchor="middle" x="152.12" y="-593.5" font-family="Helvetica,sans-Serif" font-size="10.00">Owns local runtime objects:</text>
<text xml:space="preserve" text-anchor="middle" x="152.12" y="-580.75" font-family="Helvetica,sans-Serif" font-size="10.00">player1, ground vector, trap vector,</text>
<text xml:space="preserve" text-anchor="middle" x="152.12" y="-568" font-family="Helvetica,sans-Serif" font-size="10.00">Score, GameOver, SDL handles</text>
</g>
<!-- main&#45;&gt;ground -->
<g id="edge8" class="edge">
<title>main&#45;&gt;ground</title>
<path fill="none" stroke="#334155" d="M246.56,-575.5C351.99,-575.5 508,-575.5 508,-575.5 508,-575.5 508,-517.4 508,-517.4"/>
<polygon fill="#334155" stroke="#334155" points="508,-517.24 504.8,-512.44 508,-507.64 511.2,-512.44 508,-517.24"/>
<text xml:space="preserve" text-anchor="middle" x="384.5" y="-520.5" font-family="Helvetica,sans-Serif" font-size="10.00">owns vector elements</text>
</g>
<!-- main&#45;&gt;trap -->
<g id="edge9" class="edge">
<title>main&#45;&gt;trap</title>
<path fill="none" stroke="#334155" d="M121,-560.45C121,-448.2 121,-57.25 121,-57.25 121,-57.25 506.03,-57.25 506.03,-57.25"/>
<polygon fill="#334155" stroke="#334155" points="506.18,-57.25 510.98,-54.05 515.78,-57.25 510.98,-60.45 506.18,-57.25"/>
<text xml:space="preserve" text-anchor="middle" x="384.5" y="-116.5" font-family="Helvetica,sans-Serif" font-size="10.00">owns vector elements</text>
</g>
<!-- main&#45;&gt;player -->
<g id="edge5" class="edge">
<title>main&#45;&gt;player</title>
<path fill="none" stroke="#334155" d="M184,-560.35C184,-470.54 184,-209.25 184,-209.25 184,-209.25 502.88,-209.25 502.88,-209.25"/>
<polygon fill="#334155" stroke="#334155" points="503.03,-209.25 507.83,-206.05 512.63,-209.25 507.83,-212.45 503.03,-209.25"/>
<text xml:space="preserve" text-anchor="middle" x="384.5" y="-373.5" font-family="Helvetica,sans-Serif" font-size="10.00">owns local object</text>
</g>
<!-- main&#45;&gt;score -->
<g id="edge6" class="edge">
<title>main&#45;&gt;score</title>
<path fill="none" stroke="#334155" d="M246.74,-605C358.38,-605 529,-605 529,-605 529,-605 529,-698.73 529,-698.73"/>
<polygon fill="#334155" stroke="#334155" points="529,-698.88 532.2,-703.68 529,-708.48 525.8,-703.68 529,-698.88"/>
<text xml:space="preserve" text-anchor="middle" x="384.5" y="-782.5" font-family="Helvetica,sans-Serif" font-size="10.00">owns local object</text>
</g>
<!-- main&#45;&gt;gameover -->
<g id="edge7" class="edge">
<title>main&#45;&gt;gameover</title>
<path fill="none" stroke="#334155" d="M246.63,-590.25C246.63,-590.25 530.82,-590.25 530.82,-590.25"/>
<polygon fill="#334155" stroke="#334155" points="530.98,-590.25 535.78,-587.05 540.58,-590.25 535.78,-593.45 530.98,-590.25"/>
<text xml:space="preserve" text-anchor="middle" x="384.5" y="-611.5" font-family="Helvetica,sans-Serif" font-size="10.00">owns local object</text>
</g>
<!-- main&#45;&gt;sdl -->
<g id="edge10" class="edge">
<title>main&#45;&gt;sdl</title>
<path fill="none" stroke="#334155" d="M152,-620C152,-698.71 152,-906.46 152,-906.46 152,-906.46 950.23,-906.46 950.23,-906.46"/>
<polygon fill="#334155" stroke="#334155" points="950.38,-906.46 955.18,-903.26 959.98,-906.46 955.18,-909.66 950.38,-906.46"/>
<text xml:space="preserve" text-anchor="middle" x="624.75" y="-888.5" font-family="Helvetica,sans-Serif" font-size="10.00">owns handles</text>
</g>
</g>
</svg>
