<?xml version="1.0" encoding="UTF-8" standalone="no"?>
<!DOCTYPE svg PUBLIC "-//W3C//DTD SVG 1.1//EN"
 "http://www.w3.org/Graphics/SVG/1.1/DTD/svg11.dtd">
<!-- Generated by graphviz version 14.1.5 (0)
 -->
<!-- Title: ModuleDependency Pages: 1 -->
<svg width="1911pt" height="665pt"
 viewBox="0.00 0.00 1911.00 665.00" xmlns="http://www.w3.org/2000/svg" xmlns:xlink="http://www.w3.org/1999/xlink">
<g id="graph0" class="graph" transform="scale(1 1) rotate(0) translate(4 661.25)">
<title>ModuleDependency</title>
<polygon fill="white" stroke="none" points="-4,4 -4,-661.25 1907.25,-661.25 1907.25,4 -4,4"/>
<text xml:space="preserve" text-anchor="middle" x="951.62" y="-630.45" font-family="Helvetica,sans-Serif" font-size="24.00">Jumpa Verse &#45; Module Relationship and Function Dependency Map</text>
<!-- main -->
<g id="node1" class="node">
<title>main</title>
<polygon fill="#dbeafe" stroke="#334155" points="187.75,-412 0,-412 0,-408 -4,-408 -4,-404 0,-404 0,-384 -4,-384 -4,-380 0,-380 0,-376 187.75,-376 187.75,-412"/>
<polyline fill="none" stroke="#334155" points="0,-408 4,-408 4,-404 0,-404"/>
<polyline fill="none" stroke="#334155" points="0,-384 4,-384 4,-380 0,-380"/>
<text xml:space="preserve" text-anchor="middle" x="93.88" y="-397.05" font-family="Helvetica,sans-Serif" font-size="11.00">main.cpp</text>
<text xml:space="preserve" text-anchor="middle" x="93.88" y="-383.55" font-family="Helvetica,sans-Serif" font-size="11.00">main(), resetGameplay lambda</text>
</g>
<!-- funcs -->
<g id="node2" class="node">
<title>funcs</title>
<polygon fill="#fef9c3" stroke="#334155" points="691.25,-615 510.25,-615 510.25,-611 506.25,-611 506.25,-607 510.25,-607 510.25,-587 506.25,-587 506.25,-583 510.25,-583 510.25,-579 691.25,-579 691.25,-615"/>
<polyline fill="none" stroke="#334155" points="510.25,-611 514.25,-611 514.25,-607 510.25,-607"/>
<polyline fill="none" stroke="#334155" points="510.25,-587 514.25,-587 514.25,-583 510.25,-583"/>
<text xml:space="preserve" text-anchor="middle" x="600.75" y="-600.05" font-family="Helvetica,sans-Serif" font-size="11.00">functions.h</text>
<text xml:space="preserve" text-anchor="middle" x="600.75" y="-586.55" font-family="Helvetica,sans-Serif" font-size="11.00">Shared declarations + globals</text>
</g>
<!-- main&#45;&gt;funcs -->
<g id="edge1" class="edge">
<title>main&#45;&gt;funcs</title>
<path fill="none" stroke="#2563eb" d="M47.25,-412.37C47.25,-462.34 47.25,-597 47.25,-597 47.25,-597 500.46,-597 500.46,-597"/>
<polygon fill="#2563eb" stroke="#2563eb" points="500.46,-599.8 508.46,-597 500.46,-594.2 500.46,-599.8"/>
</g>
<!-- objh -->
<g id="node3" class="node">
<title>objh</title>
<polygon fill="#dcfce7" stroke="#334155" points="1125.38,-614 944.38,-614 944.38,-610 940.38,-610 940.38,-606 944.38,-606 944.38,-586 940.38,-586 940.38,-582 944.38,-582 944.38,-578 1125.38,-578 1125.38,-614"/>
<polyline fill="none" stroke="#334155" points="944.38,-610 948.38,-610 948.38,-606 944.38,-606"/>
<polyline fill="none" stroke="#334155" points="944.38,-586 948.38,-586 948.38,-582 944.38,-582"/>
<text xml:space="preserve" text-anchor="middle" x="1034.88" y="-599.05" font-family="Helvetica,sans-Serif" font-size="11.00">object.h</text>
<text xml:space="preserve" text-anchor="middle" x="1034.88" y="-585.55" font-family="Helvetica,sans-Serif" font-size="11.00">Classes, enums, inline scaling</text>
</g>
<!-- main&#45;&gt;objh -->
<g id="edge2" class="edge">
<title>main&#45;&gt;objh</title>
<path fill="none" stroke="#2563eb" d="M188.12,-396.5C365.26,-396.5 730.25,-396.5 730.25,-396.5 730.25,-396.5 730.25,-587.75 730.25,-587.75 730.25,-587.75 934.38,-587.75 934.38,-587.75"/>
<polygon fill="#2563eb" stroke="#2563eb" points="934.38,-590.55 942.38,-587.75 934.38,-584.95 934.38,-590.55"/>
</g>
<!-- err -->
<g id="node4" class="node">
<title>err</title>
<polygon fill="#e0f2fe" stroke="#334155" points="704,-561 497.5,-561 497.5,-557 493.5,-557 493.5,-553 497.5,-553 497.5,-533 493.5,-533 493.5,-529 497.5,-529 497.5,-525 704,-525 704,-561"/>
<polyline fill="none" stroke="#334155" points="497.5,-557 501.5,-557 501.5,-553 497.5,-553"/>
<polyline fill="none" stroke="#334155" points="497.5,-533 501.5,-533 501.5,-529 497.5,-529"/>
<text xml:space="preserve" text-anchor="middle" x="600.75" y="-546.05" font-family="Helvetica,sans-Serif" font-size="11.00">Error_Handlers.cpp</text>
<text xml:space="preserve" text-anchor="middle" x="600.75" y="-532.55" font-family="Helvetica,sans-Serif" font-size="11.00">init, close, screen/window controls</text>
</g>
<!-- main&#45;&gt;err -->
<g id="edge3" class="edge">
<title>main&#45;&gt;err</title>
<path fill="none" stroke="#2563eb" d="M94.25,-412.27C94.25,-452.06 94.25,-543 94.25,-543 94.25,-543 487.52,-543 487.52,-543"/>
<polygon fill="#2563eb" stroke="#2563eb" points="487.52,-545.8 495.52,-543 487.52,-540.2 487.52,-545.8"/>
<text xml:space="preserve" text-anchor="middle" x="342.62" y="-533.25" font-family="Helvetica,sans-Serif" font-size="10.00">init/close/window controls</text>
</g>
<!-- ground -->
<g id="node5" class="node">
<title>ground</title>
<polygon fill="#dcfce7" stroke="#334155" points="694.62,-507 506.88,-507 506.88,-503 502.88,-503 502.88,-499 506.88,-499 506.88,-479 502.88,-479 502.88,-475 506.88,-475 506.88,-471 694.62,-471 694.62,-507"/>
<polyline fill="none" stroke="#334155" points="506.88,-503 510.88,-503 510.88,-499 506.88,-499"/>
<polyline fill="none" stroke="#334155" points="506.88,-479 510.88,-479 510.88,-475 506.88,-475"/>
<text xml:space="preserve" text-anchor="middle" x="600.75" y="-492.05" font-family="Helvetica,sans-Serif" font-size="11.00">ground.cpp</text>
<text xml:space="preserve" text-anchor="middle" x="600.75" y="-478.55" font-family="Helvetica,sans-Serif" font-size="11.00">ground generation/freeMemory</text>
</g>
<!-- main&#45;&gt;ground -->
<g id="edge4" class="edge">
<title>main&#45;&gt;ground</title>
<path fill="none" stroke="#2563eb" d="M188.23,-404.25C334.73,-404.25 600.25,-404.25 600.25,-404.25 600.25,-404.25 600.25,-461.1 600.25,-461.1"/>
<polygon fill="#2563eb" stroke="#2563eb" points="597.45,-461.1 600.25,-469.1 603.05,-461.1 597.45,-461.1"/>
<text xml:space="preserve" text-anchor="middle" x="342.62" y="-484.25" font-family="Helvetica,sans-Serif" font-size="10.00">ground_generator/groundRandomgenerator/freeMemory</text>
</g>
<!-- traps -->
<g id="node6" class="node">
<title>traps</title>
<polygon fill="#ffedd5" stroke="#334155" points="1120.88,-468 948.88,-468 948.88,-464 944.88,-464 944.88,-460 948.88,-460 948.88,-440 944.88,-440 944.88,-436 948.88,-436 948.88,-432 1120.88,-432 1120.88,-468"/>
<polyline fill="none" stroke="#334155" points="948.88,-464 952.88,-464 952.88,-460 948.88,-460"/>
<polyline fill="none" stroke="#334155" points="948.88,-440 952.88,-440 952.88,-436 948.88,-436"/>
<text xml:space="preserve" text-anchor="middle" x="1034.88" y="-453.05" font-family="Helvetica,sans-Serif" font-size="11.00">traps.cpp</text>
<text xml:space="preserve" text-anchor="middle" x="1034.88" y="-439.55" font-family="Helvetica,sans-Serif" font-size="11.00">trap generation/freeMemory</text>
</g>
<!-- main&#45;&gt;traps -->
<g id="edge5" class="edge">
<title>main&#45;&gt;traps</title>
<path fill="none" stroke="#2563eb" d="M141.25,-412.34C141.25,-428.67 141.25,-450 141.25,-450 141.25,-450 938.86,-450 938.86,-450"/>
<polygon fill="#2563eb" stroke="#2563eb" points="938.86,-452.8 946.86,-450 938.86,-447.2 938.86,-452.8"/>
<text xml:space="preserve" text-anchor="middle" x="600.75" y="-443.25" font-family="Helvetica,sans-Serif" font-size="10.00">trapFreeMemory indirectly trapTriangle</text>
</g>
<!-- camera -->
<g id="node7" class="node">
<title>camera</title>
<polygon fill="#ffedd5" stroke="#334155" points="664.62,-62 536.88,-62 536.88,-58 532.88,-58 532.88,-54 536.88,-54 536.88,-34 532.88,-34 532.88,-30 536.88,-30 536.88,-26 664.62,-26 664.62,-62"/>
<polyline fill="none" stroke="#334155" points="536.88,-58 540.88,-58 540.88,-54 536.88,-54"/>
<polyline fill="none" stroke="#334155" points="536.88,-34 540.88,-34 540.88,-30 536.88,-30"/>
<text xml:space="preserve" text-anchor="middle" x="600.75" y="-47.05" font-family="Helvetica,sans-Serif" font-size="11.00">camera.cpp</text>
<text xml:space="preserve" text-anchor="middle" x="600.75" y="-33.55" font-family="Helvetica,sans-Serif" font-size="11.00">cameraMovmentObj</text>
</g>
<!-- main&#45;&gt;camera -->
<g id="edge6" class="edge">
<title>main&#45;&gt;camera</title>
<path fill="none" stroke="#2563eb" d="M31.25,-375.68C31.25,-303.66 31.25,-44 31.25,-44 31.25,-44 527.01,-44 527.01,-44"/>
<polygon fill="#2563eb" stroke="#2563eb" points="527.01,-46.8 535.01,-44 527.01,-41.2 527.01,-46.8"/>
<text xml:space="preserve" text-anchor="middle" x="342.62" y="-47.25" font-family="Helvetica,sans-Serif" font-size="10.00">cameraMovmentObj</text>
</g>
<!-- player -->
<g id="node8" class="node">
<title>player</title>
<polygon fill="#fee2e2" stroke="#334155" points="859.38,-417 757.12,-417 757.12,-413 753.12,-413 753.12,-409 757.12,-409 757.12,-389 753.12,-389 753.12,-385 757.12,-385 757.12,-381 859.38,-381 859.38,-417"/>
<polyline fill="none" stroke="#334155" points="757.12,-413 761.12,-413 761.12,-409 757.12,-409"/>
<polyline fill="none" stroke="#334155" points="757.12,-389 761.12,-389 761.12,-385 757.12,-385"/>
<text xml:space="preserve" text-anchor="middle" x="808.25" y="-402.05" font-family="Helvetica,sans-Serif" font-size="11.00">player.cpp</text>
<text xml:space="preserve" text-anchor="middle" x="808.25" y="-388.55" font-family="Helvetica,sans-Serif" font-size="11.00">physicsDevelop</text>
</g>
<!-- main&#45;&gt;player -->
<g id="edge7" class="edge">
<title>main&#45;&gt;player</title>
<path fill="none" stroke="#2563eb" d="M188,-388.75C188,-388.75 747.13,-388.75 747.13,-388.75"/>
<polygon fill="#2563eb" stroke="#2563eb" points="747.13,-391.55 755.13,-388.75 747.13,-385.95 747.13,-391.55"/>
<text xml:space="preserve" text-anchor="middle" x="342.62" y="-397.25" font-family="Helvetica,sans-Serif" font-size="10.00">physicsDevelop</text>
</g>
<!-- score -->
<g id="node9" class="node">
<title>score</title>
<polygon fill="#fef9c3" stroke="#334155" points="1505.5,-376 1391.25,-376 1391.25,-372 1387.25,-372 1387.25,-368 1391.25,-368 1391.25,-348 1387.25,-348 1387.25,-344 1391.25,-344 1391.25,-340 1505.5,-340 1505.5,-376"/>
<polyline fill="none" stroke="#334155" points="1391.25,-372 1395.25,-372 1395.25,-368 1391.25,-368"/>
<polyline fill="none" stroke="#334155" points="1391.25,-348 1395.25,-348 1395.25,-344 1391.25,-344"/>
<text xml:space="preserve" text-anchor="middle" x="1448.38" y="-361.05" font-family="Helvetica,sans-Serif" font-size="11.00">score.cpp</text>
<text xml:space="preserve" text-anchor="middle" x="1448.38" y="-347.55" font-family="Helvetica,sans-Serif" font-size="11.00">Score + wrappers</text>
</g>
<!-- main&#45;&gt;score -->
<g id="edge8" class="edge">
<title>main&#45;&gt;score</title>
<path fill="none" stroke="#2563eb" d="M94.25,-375.51C94.25,-369.34 94.25,-364 94.25,-364 94.25,-364 1381.54,-364 1381.54,-364"/>
<polygon fill="#2563eb" stroke="#2563eb" points="1381.54,-366.8 1389.54,-364 1381.54,-361.2 1381.54,-366.8"/>
<text xml:space="preserve" text-anchor="middle" x="808.25" y="-362.25" font-family="Helvetica,sans-Serif" font-size="10.00">score wrappers</text>
</g>
<!-- go -->
<g id="node10" class="node">
<title>go</title>
<polygon fill="#fecaca" stroke="#334155" points="1157.25,-338 912.5,-338 912.5,-334 908.5,-334 908.5,-330 912.5,-330 912.5,-310 908.5,-310 908.5,-306 912.5,-306 912.5,-302 1157.25,-302 1157.25,-338"/>
<polyline fill="none" stroke="#334155" points="912.5,-334 916.5,-334 916.5,-330 912.5,-330"/>
<polyline fill="none" stroke="#334155" points="912.5,-310 916.5,-310 916.5,-306 912.5,-306"/>
<text xml:space="preserve" text-anchor="middle" x="1034.88" y="-323.05" font-family="Helvetica,sans-Serif" font-size="11.00">gameover.cpp</text>
<text xml:space="preserve" text-anchor="middle" x="1034.88" y="-309.55" font-family="Helvetica,sans-Serif" font-size="11.00">collision, score saving, game over screen</text>
</g>
<!-- main&#45;&gt;go -->
<g id="edge9" class="edge">
<title>main&#45;&gt;go</title>
<path fill="none" stroke="#2563eb" d="M156.25,-375.71C156.25,-353.79 156.25,-320 156.25,-320 156.25,-320 902.73,-320 902.73,-320"/>
<polygon fill="#2563eb" stroke="#2563eb" points="902.73,-322.8 910.73,-320 902.73,-317.2 902.73,-322.8"/>
<text xml:space="preserve" text-anchor="middle" x="600.75" y="-318.25" font-family="Helvetica,sans-Serif" font-size="10.00">collisions/game over</text>
</g>
<!-- menu -->
<g id="node11" class="node">
<title>menu</title>
<polygon fill="#fae8ff" stroke="#334155" points="698.75,-274 502.75,-274 502.75,-270 498.75,-270 498.75,-266 502.75,-266 502.75,-246 498.75,-246 498.75,-242 502.75,-242 502.75,-238 698.75,-238 698.75,-274"/>
<polyline fill="none" stroke="#334155" points="502.75,-270 506.75,-270 506.75,-266 502.75,-266"/>
<polyline fill="none" stroke="#334155" points="502.75,-246 506.75,-246 506.75,-242 502.75,-242"/>
<text xml:space="preserve" text-anchor="middle" x="600.75" y="-259.05" font-family="Helvetica,sans-Serif" font-size="11.00">menuScreen.cpp</text>
<text xml:space="preserve" text-anchor="middle" x="600.75" y="-245.55" font-family="Helvetica,sans-Serif" font-size="11.00">main menu + preview animation</text>
</g>
<!-- main&#45;&gt;menu -->
<g id="edge10" class="edge">
<title>main&#45;&gt;menu</title>
<path fill="none" stroke="#2563eb" d="M125.25,-375.67C125.25,-338.14 125.25,-256 125.25,-256 125.25,-256 493,-256 493,-256"/>
<polygon fill="#2563eb" stroke="#2563eb" points="493,-258.8 501,-256 493,-253.2 493,-258.8"/>
<text xml:space="preserve" text-anchor="middle" x="342.62" y="-277.25" font-family="Helvetica,sans-Serif" font-size="10.00">menuScreen</text>
</g>
<!-- files -->
<g id="node16" class="node">
<title>files</title>
<polygon fill="#f8fafc" stroke="#334155" points="1861.62,-121 1858.62,-125 1837.62,-125 1834.62,-121 1718.12,-121 1718.12,-59 1861.62,-59 1861.62,-121"/>
<text xml:space="preserve" text-anchor="middle" x="1789.88" y="-106.55" font-family="Helvetica,sans-Serif" font-size="11.00">Data files</text>
<text xml:space="preserve" text-anchor="middle" x="1789.88" y="-93.05" font-family="Helvetica,sans-Serif" font-size="11.00">player.csv, score.csv</text>
<text xml:space="preserve" text-anchor="middle" x="1789.88" y="-79.55" font-family="Helvetica,sans-Serif" font-size="11.00">Images_textures/*.jpeg</text>
<text xml:space="preserve" text-anchor="middle" x="1789.88" y="-66.05" font-family="Helvetica,sans-Serif" font-size="11.00">Debrosee font</text>
</g>
<!-- main&#45;&gt;files -->
<g id="edge29" class="edge">
<title>main&#45;&gt;files</title>
<path fill="none" stroke="#2563eb" d="M62.25,-375.53C62.25,-307.66 62.25,-76 62.25,-76 62.25,-76 1708.33,-76 1708.33,-76"/>
<polygon fill="#2563eb" stroke="#2563eb" points="1708.33,-78.8 1716.33,-76 1708.33,-73.2 1708.33,-78.8"/>
<text xml:space="preserve" text-anchor="middle" x="1034.88" y="-93.25" font-family="Helvetica,sans-Serif" font-size="10.00">texture/font load</text>
</g>
<!-- funcs&#45;&gt;objh -->
<g id="edge17" class="edge">
<title>funcs&#45;&gt;objh</title>
<path fill="none" stroke="#2563eb" d="M691.49,-605.25C691.49,-605.25 934.36,-605.25 934.36,-605.25"/>
<polygon fill="#2563eb" stroke="#2563eb" points="934.36,-608.05 942.36,-605.25 934.36,-602.45 934.36,-608.05"/>
<text xml:space="preserve" text-anchor="middle" x="808.25" y="-611.25" font-family="Helvetica,sans-Serif" font-size="10.00">forward declarations/types</text>
</g>
<!-- sdl -->
<g id="node15" class="node">
<title>sdl</title>
<polygon fill="#ccfbf1" stroke="#334155" points="1903.25,-376 1676.5,-376 1676.5,-340 1903.25,-340 1903.25,-376"/>
<text xml:space="preserve" text-anchor="middle" x="1789.88" y="-354.3" font-family="Helvetica,sans-Serif" font-size="11.00">SDL2 / SDL_image / SDL_ttf / SDL2_gfx</text>
</g>
<!-- objh&#45;&gt;sdl -->
<g id="edge18" class="edge">
<title>objh&#45;&gt;sdl</title>
<path fill="none" stroke="#2563eb" d="M1125.72,-596C1341.18,-596 1865.25,-596 1865.25,-596 1865.25,-596 1865.25,-385.79 1865.25,-385.79"/>
<polygon fill="#2563eb" stroke="#2563eb" points="1868.05,-385.79 1865.25,-377.79 1862.45,-385.79 1868.05,-385.79"/>
</g>
<!-- err&#45;&gt;objh -->
<g id="edge16" class="edge">
<title>err&#45;&gt;objh</title>
<path fill="none" stroke="#2563eb" d="M697.25,-561.41C697.25,-576.89 697.25,-596.5 697.25,-596.5 697.25,-596.5 934.44,-596.5 934.44,-596.5"/>
<polygon fill="#2563eb" stroke="#2563eb" points="934.44,-599.3 942.44,-596.5 934.44,-593.7 934.44,-599.3"/>
<text xml:space="preserve" text-anchor="middle" x="808.25" y="-575.25" font-family="Helvetica,sans-Serif" font-size="10.00">uses GAME_WIDTH/HEIGHT globals</text>
</g>
<!-- err&#45;&gt;sdl -->
<g id="edge19" class="edge">
<title>err&#45;&gt;sdl</title>
<path fill="none" stroke="#2563eb" d="M704.26,-543C999.96,-543 1827.25,-543 1827.25,-543 1827.25,-543 1827.25,-385.93 1827.25,-385.93"/>
<polygon fill="#2563eb" stroke="#2563eb" points="1830.05,-385.93 1827.25,-377.93 1824.45,-385.93 1830.05,-385.93"/>
</g>
<!-- ground&#45;&gt;traps -->
<g id="edge15" class="edge">
<title>ground&#45;&gt;traps</title>
<path fill="none" stroke="#2563eb" d="M695.03,-483C822.82,-483 1035.25,-483 1035.25,-483 1035.25,-483 1035.25,-477.94 1035.25,-477.94"/>
<polygon fill="#2563eb" stroke="#2563eb" points="1038.05,-477.94 1035.25,-469.94 1032.45,-477.94 1038.05,-477.94"/>
<text xml:space="preserve" text-anchor="middle" x="808.25" y="-476.25" font-family="Helvetica,sans-Serif" font-size="10.00">trapTriangle</text>
</g>
<!-- ground&#45;&gt;sdl -->
<g id="edge26" class="edge">
<title>ground&#45;&gt;sdl</title>
<path fill="none" stroke="#2563eb" d="M695.08,-495C976.42,-495 1790.25,-495 1790.25,-495 1790.25,-495 1790.25,-385.99 1790.25,-385.99"/>
<polygon fill="#2563eb" stroke="#2563eb" points="1793.05,-385.99 1790.25,-377.99 1787.45,-385.99 1793.05,-385.99"/>
</g>
<!-- traps&#45;&gt;sdl -->
<g id="edge27" class="edge">
<title>traps&#45;&gt;sdl</title>
<path fill="none" stroke="#2563eb" d="M1121.05,-450C1311.66,-450 1752.25,-450 1752.25,-450 1752.25,-450 1752.25,-385.69 1752.25,-385.69"/>
<polygon fill="#2563eb" stroke="#2563eb" points="1755.05,-385.69 1752.25,-377.69 1749.45,-385.69 1755.05,-385.69"/>
</g>
<!-- player&#45;&gt;sdl -->
<g id="edge28" class="edge">
<title>player&#45;&gt;sdl</title>
<path fill="none" stroke="#2563eb" d="M859.56,-399C1051.21,-399 1714.25,-399 1714.25,-399 1714.25,-399 1714.25,-385.62 1714.25,-385.62"/>
<polygon fill="#2563eb" stroke="#2563eb" points="1717.05,-385.62 1714.25,-377.62 1711.45,-385.62 1717.05,-385.62"/>
</g>
<!-- score&#45;&gt;sdl -->
<g id="edge24" class="edge">
<title>score&#45;&gt;sdl</title>
<path fill="none" stroke="#2563eb" d="M1505.92,-358C1505.92,-358 1666.53,-358 1666.53,-358"/>
<polygon fill="#2563eb" stroke="#2563eb" points="1666.53,-360.8 1674.53,-358 1666.53,-355.2 1666.53,-360.8"/>
</g>
<!-- go&#45;&gt;score -->
<g id="edge14" class="edge">
<title>go&#45;&gt;score</title>
<path fill="none" stroke="#2563eb" stroke-dasharray="1,5" d="M1141.25,-338.24C1141.25,-345.43 1141.25,-352 1141.25,-352 1141.25,-352 1381.45,-352 1381.45,-352"/>
<polygon fill="#2563eb" stroke="#2563eb" points="1381.45,-354.8 1389.45,-352 1381.45,-349.2 1381.45,-354.8"/>
<text xml:space="preserve" text-anchor="middle" x="1251" y="-344.25" font-family="Helvetica,sans-Serif" font-size="10.00">Score::value passed from main</text>
</g>
<!-- go&#45;&gt;sdl -->
<g id="edge25" class="edge">
<title>go&#45;&gt;sdl</title>
<path fill="none" stroke="#2563eb" d="M1157.59,-320C1345.56,-320 1683.25,-320 1683.25,-320 1683.25,-320 1683.25,-330.38 1683.25,-330.38"/>
<polygon fill="#2563eb" stroke="#2563eb" points="1680.45,-330.38 1683.25,-338.38 1686.05,-330.38 1680.45,-330.38"/>
</g>
<!-- go&#45;&gt;files -->
<g id="edge33" class="edge">
<title>go&#45;&gt;files</title>
<path fill="none" stroke="#2563eb" d="M1138.25,-301.57C1138.25,-246.99 1138.25,-90 1138.25,-90 1138.25,-90 1708.14,-90 1708.14,-90"/>
<polygon fill="#2563eb" stroke="#2563eb" points="1708.14,-92.8 1716.14,-90 1708.14,-87.2 1708.14,-92.8"/>
<text xml:space="preserve" text-anchor="middle" x="1448.38" y="-52.25" font-family="Helvetica,sans-Serif" font-size="10.00">append score.csv/update player.csv</text>
</g>
<!-- login -->
<g id="node12" class="node">
<title>login</title>
<polygon fill="#fae8ff" stroke="#334155" points="1120.12,-233 949.62,-233 949.62,-229 945.62,-229 945.62,-225 949.62,-225 949.62,-205 945.62,-205 945.62,-201 949.62,-201 949.62,-197 1120.12,-197 1120.12,-233"/>
<polyline fill="none" stroke="#334155" points="949.62,-229 953.62,-229 953.62,-225 949.62,-225"/>
<polyline fill="none" stroke="#334155" points="949.62,-205 953.62,-205 953.62,-201 949.62,-201"/>
<text xml:space="preserve" text-anchor="middle" x="1034.88" y="-218.05" font-family="Helvetica,sans-Serif" font-size="11.00">loginScreen.cpp</text>
<text xml:space="preserve" text-anchor="middle" x="1034.88" y="-204.55" font-family="Helvetica,sans-Serif" font-size="11.00">login text input + validation</text>
</g>
<!-- menu&#45;&gt;login -->
<g id="edge11" class="edge">
<title>menu&#45;&gt;login</title>
<path fill="none" stroke="#2563eb" d="M687.25,-237.9C687.25,-226.91 687.25,-215 687.25,-215 687.25,-215 939.88,-215 939.88,-215"/>
<polygon fill="#2563eb" stroke="#2563eb" points="939.88,-217.8 947.88,-215 939.88,-212.2 939.88,-217.8"/>
<text xml:space="preserve" text-anchor="middle" x="808.25" y="-234.25" font-family="Helvetica,sans-Serif" font-size="10.00">runLoginScreen</text>
</g>
<!-- smenu -->
<g id="node14" class="node">
<title>smenu</title>
<polygon fill="#fae8ff" stroke="#334155" points="1536.25,-154 1360.5,-154 1360.5,-150 1356.5,-150 1356.5,-146 1360.5,-146 1360.5,-126 1356.5,-126 1356.5,-122 1360.5,-122 1360.5,-118 1536.25,-118 1536.25,-154"/>
<polyline fill="none" stroke="#334155" points="1360.5,-150 1364.5,-150 1364.5,-146 1360.5,-146"/>
<polyline fill="none" stroke="#334155" points="1360.5,-126 1364.5,-126 1364.5,-122 1360.5,-122"/>
<text xml:space="preserve" text-anchor="middle" x="1448.38" y="-139.05" font-family="Helvetica,sans-Serif" font-size="11.00">scoreMenu.cpp</text>
<text xml:space="preserve" text-anchor="middle" x="1448.38" y="-125.55" font-family="Helvetica,sans-Serif" font-size="11.00">leaderboard read/sort/render</text>
</g>
<!-- menu&#45;&gt;smenu -->
<g id="edge12" class="edge">
<title>menu&#45;&gt;smenu</title>
<path fill="none" stroke="#2563eb" d="M676.25,-237.51C676.25,-203.85 676.25,-136 676.25,-136 676.25,-136 1350.67,-136 1350.67,-136"/>
<polygon fill="#2563eb" stroke="#2563eb" points="1350.67,-138.8 1358.67,-136 1350.67,-133.2 1350.67,-138.8"/>
<text xml:space="preserve" text-anchor="middle" x="1034.88" y="-155.25" font-family="Helvetica,sans-Serif" font-size="10.00">runScoreMenu</text>
</g>
<!-- menu&#45;&gt;sdl -->
<g id="edge20" class="edge">
<title>menu&#45;&gt;sdl</title>
<path fill="none" stroke="#2563eb" d="M698.88,-256C966.68,-256 1690.25,-256 1690.25,-256 1690.25,-256 1690.25,-330.25 1690.25,-330.25"/>
<polygon fill="#2563eb" stroke="#2563eb" points="1687.45,-330.25 1690.25,-338.25 1693.05,-330.25 1687.45,-330.25"/>
</g>
<!-- reg -->
<g id="node13" class="node">
<title>reg</title>
<polygon fill="#fae8ff" stroke="#334155" points="1552,-208 1344.75,-208 1344.75,-204 1340.75,-204 1340.75,-200 1344.75,-200 1344.75,-180 1340.75,-180 1340.75,-176 1344.75,-176 1344.75,-172 1552,-172 1552,-208"/>
<polyline fill="none" stroke="#334155" points="1344.75,-204 1348.75,-204 1348.75,-200 1344.75,-200"/>
<polyline fill="none" stroke="#334155" points="1344.75,-180 1348.75,-180 1348.75,-176 1344.75,-176"/>
<text xml:space="preserve" text-anchor="middle" x="1448.38" y="-193.05" font-family="Helvetica,sans-Serif" font-size="11.00">register.cpp</text>
<text xml:space="preserve" text-anchor="middle" x="1448.38" y="-179.55" font-family="Helvetica,sans-Serif" font-size="11.00">registration text input + CSV write</text>
</g>
<!-- login&#45;&gt;reg -->
<g id="edge13" class="edge">
<title>login&#45;&gt;reg</title>
<path fill="none" stroke="#2563eb" d="M1120.55,-202.5C1120.55,-202.5 1334.98,-202.5 1334.98,-202.5"/>
<polygon fill="#2563eb" stroke="#2563eb" points="1334.98,-205.3 1342.98,-202.5 1334.98,-199.7 1334.98,-205.3"/>
<text xml:space="preserve" text-anchor="middle" x="1251" y="-202.25" font-family="Helvetica,sans-Serif" font-size="10.00">runRegisterScreen</text>
</g>
<!-- login&#45;&gt;sdl -->
<g id="edge21" class="edge">
<title>login&#45;&gt;sdl</title>
<path fill="none" stroke="#2563eb" d="M1120.45,-224.67C1299.51,-224.67 1697.25,-224.67 1697.25,-224.67 1697.25,-224.67 1697.25,-330.23 1697.25,-330.23"/>
<polygon fill="#2563eb" stroke="#2563eb" points="1694.45,-330.23 1697.25,-338.23 1700.05,-330.23 1694.45,-330.23"/>
</g>
<!-- login&#45;&gt;files -->
<g id="edge30" class="edge">
<title>login&#45;&gt;files</title>
<path fill="none" stroke="#2563eb" d="M1120.51,-216.33C1322.97,-216.33 1814.25,-216.33 1814.25,-216.33 1814.25,-216.33 1814.25,-130.74 1814.25,-130.74"/>
<polygon fill="#2563eb" stroke="#2563eb" points="1817.05,-130.74 1814.25,-122.74 1811.45,-130.74 1817.05,-130.74"/>
<text xml:space="preserve" text-anchor="middle" x="1448.38" y="-3.25" font-family="Helvetica,sans-Serif" font-size="10.00">read player.csv</text>
</g>
<!-- reg&#45;&gt;sdl -->
<g id="edge22" class="edge">
<title>reg&#45;&gt;sdl</title>
<path fill="none" stroke="#2563eb" d="M1552.45,-190C1623.29,-190 1704.25,-190 1704.25,-190 1704.25,-190 1704.25,-330.19 1704.25,-330.19"/>
<polygon fill="#2563eb" stroke="#2563eb" points="1701.45,-330.19 1704.25,-338.19 1707.05,-330.19 1701.45,-330.19"/>
</g>
<!-- reg&#45;&gt;files -->
<g id="edge31" class="edge">
<title>reg&#45;&gt;files</title>
<path fill="none" stroke="#2563eb" d="M1544.25,-171.76C1544.25,-146.52 1544.25,-104 1544.25,-104 1544.25,-104 1708.33,-104 1708.33,-104"/>
<polygon fill="#2563eb" stroke="#2563eb" points="1708.33,-106.8 1716.33,-104 1708.33,-101.2 1708.33,-106.8"/>
<text xml:space="preserve" text-anchor="middle" x="1614.25" y="-162.25" font-family="Helvetica,sans-Serif" font-size="10.00">append player.csv</text>
</g>
<!-- smenu&#45;&gt;sdl -->
<g id="edge23" class="edge">
<title>smenu&#45;&gt;sdl</title>
<path fill="none" stroke="#2563eb" d="M1536.64,-143C1613.01,-143 1711.25,-143 1711.25,-143 1711.25,-143 1711.25,-330.16 1711.25,-330.16"/>
<polygon fill="#2563eb" stroke="#2563eb" points="1708.45,-330.16 1711.25,-338.16 1714.05,-330.16 1708.45,-330.16"/>
</g>
<!-- smenu&#45;&gt;files -->
<g id="edge32" class="edge">
<title>smenu&#45;&gt;files</title>
<path fill="none" stroke="#2563eb" d="M1536.5,-132C1630.57,-132 1766.25,-132 1766.25,-132 1766.25,-132 1766.25,-130.92 1766.25,-130.92"/>
<polygon fill="#2563eb" stroke="#2563eb" points="1769.05,-130.92 1766.25,-122.92 1763.45,-130.92 1769.05,-130.92"/>
<text xml:space="preserve" text-anchor="middle" x="1614.25" y="-126.25" font-family="Helvetica,sans-Serif" font-size="10.00">read player.csv</text>
</g>
</g>
</svg>
