<?xml version="1.0" encoding="UTF-8" standalone="no"?>
<!DOCTYPE svg PUBLIC "-//W3C//DTD SVG 1.1//EN"
 "http://www.w3.org/Graphics/SVG/1.1/DTD/svg11.dtd">
<!-- Generated by graphviz version 14.1.5 (0)
 -->
<!-- Title: StateTransitions Pages: 1 -->
<svg width="2378pt" height="469pt"
 viewBox="0.00 0.00 2378.00 469.00" xmlns="http://www.w3.org/2000/svg" xmlns:xlink="http://www.w3.org/1999/xlink">
<g id="graph0" class="graph" transform="scale(1 1) rotate(0) translate(4 464.89)">
<title>StateTransitions</title>
<polygon fill="white" stroke="none" points="-4,4 -4,-464.89 2374.26,-464.89 2374.26,4 -4,4"/>
<text xml:space="preserve" text-anchor="middle" x="1185.13" y="-434.09" font-family="Helvetica,sans-Serif" font-size="24.00">Jumpa Verse &#45; Application State Transition Diagram</text>
<!-- start -->
<g id="node1" class="node">
<title>start</title>
<ellipse fill="#dcfce7" stroke="#334155" cx="28.78" cy="-35.89" rx="28.78" ry="28.78"/>
<text xml:space="preserve" text-anchor="middle" x="28.78" y="-31.61" font-family="Helvetica,sans-Serif" font-size="12.00">Start</text>
</g>
<!-- init -->
<g id="node2" class="node">
<title>init</title>
<ellipse fill="#dbeafe" stroke="#334155" cx="238.95" cy="-35.89" rx="113.14" ry="35.89"/>
<text xml:space="preserve" text-anchor="middle" x="238.95" y="-45.86" font-family="Helvetica,sans-Serif" font-size="12.00">Initialize SDL/TTF/IMG</text>
<text xml:space="preserve" text-anchor="middle" x="238.95" y="-31.61" font-family="Helvetica,sans-Serif" font-size="12.00">Create window/renderer</text>
<text xml:space="preserve" text-anchor="middle" x="238.95" y="-17.36" font-family="Helvetica,sans-Serif" font-size="12.00">Load textures/font</text>
</g>
<!-- start&#45;&gt;init -->
<g id="edge1" class="edge">
<title>start&#45;&gt;init</title>
<path fill="none" stroke="#334155" d="M58,-35.89C58,-35.89 116.05,-35.89 116.05,-35.89"/>
<polygon fill="#334155" stroke="#334155" points="116.05,-38.69 124.05,-35.89 116.05,-33.09 116.05,-38.69"/>
<text xml:space="preserve" text-anchor="middle" x="91.69" y="-39.14" font-family="Helvetica,sans-Serif" font-size="10.00">main()</text>
</g>
<!-- menu -->
<g id="node3" class="node">
<title>menu</title>
<ellipse fill="#fae8ff" stroke="#334155" cx="636.08" cy="-134.89" rx="84.5" ry="35.89"/>
<text xml:space="preserve" text-anchor="middle" x="636.08" y="-144.86" font-family="Helvetica,sans-Serif" font-size="12.00">Main Menu</text>
<text xml:space="preserve" text-anchor="middle" x="636.08" y="-130.61" font-family="Helvetica,sans-Serif" font-size="12.00">menu=false gate</text>
<text xml:space="preserve" text-anchor="middle" x="636.08" y="-116.36" font-family="Helvetica,sans-Serif" font-size="12.00">Play/Scores/Exit</text>
</g>
<!-- init&#45;&gt;menu -->
<g id="edge3" class="edge">
<title>init&#45;&gt;menu</title>
<path fill="none" stroke="#334155" d="M316.97,-62.31C432.68,-62.31 636.26,-62.31 636.26,-62.31 636.26,-62.31 636.26,-89.09 636.26,-89.09"/>
<polygon fill="#334155" stroke="#334155" points="633.46,-89.09 636.26,-97.09 639.06,-89.09 633.46,-89.09"/>
<text xml:space="preserve" text-anchor="middle" x="451.83" y="-97.14" font-family="Helvetica,sans-Serif" font-size="10.00">resetGameplay then while !menu</text>
</g>
<!-- quit -->
<g id="node9" class="node">
<title>quit</title>
<ellipse fill="#dcfce7" stroke="#334155" cx="2255.77" cy="-157.89" rx="110.49" ry="110.49"/>
<ellipse fill="none" stroke="#334155" cx="2255.77" cy="-157.89" rx="114.49" ry="114.49"/>
<text xml:space="preserve" text-anchor="middle" x="2255.77" y="-160.74" font-family="Helvetica,sans-Serif" font-size="12.00">Quit</text>
<text xml:space="preserve" text-anchor="middle" x="2255.77" y="-146.49" font-family="Helvetica,sans-Serif" font-size="12.00">close(window,renderer)</text>
</g>
<!-- init&#45;&gt;quit -->
<g id="edge2" class="edge">
<title>init&#45;&gt;quit</title>
<path fill="none" stroke="#ef4444" d="M339.31,-52.86C339.31,-52.86 2199.81,-52.86 2199.81,-52.86"/>
<polygon fill="#ef4444" stroke="#ef4444" points="2199.81,-55.66 2207.81,-52.86 2199.81,-50.06 2199.81,-55.66"/>
<text xml:space="preserve" text-anchor="middle" x="1291.76" y="-23.14" font-family="Helvetica,sans-Serif" font-size="10.00">init failure / return &#45;1</text>
</g>
<!-- login -->
<g id="node4" class="node">
<title>login</title>
<ellipse fill="#fae8ff" stroke="#334155" cx="993.8" cy="-203.89" rx="175.72" ry="35.89"/>
<text xml:space="preserve" text-anchor="middle" x="993.8" y="-213.86" font-family="Helvetica,sans-Serif" font-size="12.00">Login Screen</text>
<text xml:space="preserve" text-anchor="middle" x="993.8" y="-199.61" font-family="Helvetica,sans-Serif" font-size="12.00">username/password</text>
<text xml:space="preserve" text-anchor="middle" x="993.8" y="-185.36" font-family="Helvetica,sans-Serif" font-size="12.00">currentPlayerUsername set on success</text>
</g>
<!-- menu&#45;&gt;login -->
<g id="edge4" class="edge">
<title>menu&#45;&gt;login</title>
<path fill="none" stroke="#334155" d="M703.57,-156.85C771.81,-156.85 867.26,-156.85 867.26,-156.85 867.26,-156.85 867.26,-169.2 867.26,-169.2"/>
<polygon fill="#334155" stroke="#334155" points="864.46,-169.2 867.26,-177.2 870.06,-169.2 864.46,-169.2"/>
<text xml:space="preserve" text-anchor="middle" x="769.33" y="-210.14" font-family="Helvetica,sans-Serif" font-size="10.00">Play</text>
</g>
<!-- scores -->
<g id="node6" class="node">
<title>scores</title>
<ellipse fill="#fae8ff" stroke="#334155" cx="993.8" cy="-119.89" rx="102.53" ry="25.81"/>
<text xml:space="preserve" text-anchor="middle" x="993.8" y="-122.74" font-family="Helvetica,sans-Serif" font-size="12.00">Scores Screen</text>
<text xml:space="preserve" text-anchor="middle" x="993.8" y="-108.49" font-family="Helvetica,sans-Serif" font-size="12.00">reads/sorts player.csv</text>
</g>
<!-- menu&#45;&gt;scores -->
<g id="edge5" class="edge">
<title>menu&#45;&gt;scores</title>
<path fill="none" stroke="#334155" d="M706.33,-114.57C706.33,-114.57 883.39,-114.57 883.39,-114.57"/>
<polygon fill="#334155" stroke="#334155" points="883.39,-117.37 891.39,-114.57 883.39,-111.77 883.39,-117.37"/>
<text xml:space="preserve" text-anchor="middle" x="769.33" y="-138.14" font-family="Helvetica,sans-Serif" font-size="10.00">Scores</text>
</g>
<!-- menu&#45;&gt;quit -->
<g id="edge6" class="edge">
<title>menu&#45;&gt;quit</title>
<path fill="none" stroke="#ef4444" d="M711.76,-151.27C711.76,-151.27 2131.74,-151.27 2131.74,-151.27"/>
<polygon fill="#ef4444" stroke="#ef4444" points="2131.74,-154.07 2139.74,-151.27 2131.74,-148.47 2131.74,-154.07"/>
<text xml:space="preserve" text-anchor="middle" x="1506.47" y="-81.89" font-family="Helvetica,sans-Serif" font-size="10.00">Exit or SDL_QUIT</text>
<text xml:space="preserve" text-anchor="middle" x="1506.47" y="-69.14" font-family="Helvetica,sans-Serif" font-size="10.00">exitb=true</text>
</g>
<!-- login&#45;&gt;menu -->
<g id="edge11" class="edge">
<title>login&#45;&gt;menu</title>
<path fill="none" stroke="#334155" d="M842.26,-185.58C842.26,-174.47 842.26,-162.42 842.26,-162.42 842.26,-162.42 701.12,-162.42 701.12,-162.42"/>
<polygon fill="#334155" stroke="#334155" points="701.12,-159.62 693.12,-162.42 701.12,-165.22 701.12,-159.62"/>
<text xml:space="preserve" text-anchor="middle" x="769.33" y="-174.14" font-family="Helvetica,sans-Serif" font-size="10.00">Back/Escape</text>
</g>
<!-- register -->
<g id="node5" class="node">
<title>register</title>
<ellipse fill="#fae8ff" stroke="#334155" cx="1506.47" cy="-211.89" rx="81.32" ry="25.81"/>
<text xml:space="preserve" text-anchor="middle" x="1506.47" y="-214.74" font-family="Helvetica,sans-Serif" font-size="12.00">Register Screen</text>
<text xml:space="preserve" text-anchor="middle" x="1506.47" y="-200.49" font-family="Helvetica,sans-Serif" font-size="12.00">writes player.csv</text>
</g>
<!-- login&#45;&gt;register -->
<g id="edge10" class="edge">
<title>login&#45;&gt;register</title>
<path fill="none" stroke="#334155" d="M1168.08,-198.98C1168.08,-198.98 1425.83,-198.98 1425.83,-198.98"/>
<polygon fill="#334155" stroke="#334155" points="1425.83,-201.78 1433.83,-198.98 1425.83,-196.18 1425.83,-201.78"/>
<text xml:space="preserve" text-anchor="middle" x="1291.76" y="-199.14" font-family="Helvetica,sans-Serif" font-size="10.00">register text clicked</text>
</g>
<!-- gameplay -->
<g id="node7" class="node">
<title>gameplay</title>
<ellipse fill="#ffedd5" stroke="#334155" cx="1506.47" cy="-291.89" rx="92.45" ry="35.89"/>
<text xml:space="preserve" text-anchor="middle" x="1506.47" y="-301.86" font-family="Helvetica,sans-Serif" font-size="12.00">Gameplay Running</text>
<text xml:space="preserve" text-anchor="middle" x="1506.47" y="-287.61" font-family="Helvetica,sans-Serif" font-size="12.00">menu=true</text>
<text xml:space="preserve" text-anchor="middle" x="1506.47" y="-273.36" font-family="Helvetica,sans-Serif" font-size="12.00">update/render loop</text>
</g>
<!-- login&#45;&gt;gameplay -->
<g id="edge9" class="edge">
<title>login&#45;&gt;gameplay</title>
<path fill="none" stroke="#334155" d="M1137.84,-224.79C1261.27,-224.79 1419.26,-224.79 1419.26,-224.79 1419.26,-224.79 1419.26,-270.07 1419.26,-270.07"/>
<polygon fill="#334155" stroke="#334155" points="1416.46,-270.07 1419.26,-278.07 1422.06,-270.07 1416.46,-270.07"/>
<text xml:space="preserve" text-anchor="middle" x="1291.76" y="-285.14" font-family="Helvetica,sans-Serif" font-size="10.00">LoginSuccess =&gt; menuScreen returns true</text>
</g>
<!-- login&#45;&gt;quit -->
<g id="edge12" class="edge">
<title>login&#45;&gt;quit</title>
<path fill="none" stroke="#ef4444" d="M1112.52,-177.04C1112.52,-177.04 2133.32,-177.04 2133.32,-177.04"/>
<polygon fill="#ef4444" stroke="#ef4444" points="2133.32,-179.84 2141.32,-177.04 2133.32,-174.24 2133.32,-179.84"/>
<text xml:space="preserve" text-anchor="middle" x="1688.55" y="-161.14" font-family="Helvetica,sans-Serif" font-size="10.00">SDL_QUIT</text>
</g>
<!-- register&#45;&gt;login -->
<g id="edge13" class="edge">
<title>register&#45;&gt;login</title>
<path fill="none" stroke="#334155" d="M1424.67,-211.89C1424.67,-211.89 1175.05,-211.89 1175.05,-211.89"/>
<polygon fill="#334155" stroke="#334155" points="1175.05,-209.09 1167.05,-211.89 1175.05,-214.69 1175.05,-209.09"/>
<text xml:space="preserve" text-anchor="middle" x="1291.76" y="-235.14" font-family="Helvetica,sans-Serif" font-size="10.00">Registered / Back</text>
</g>
<!-- register&#45;&gt;quit -->
<g id="edge14" class="edge">
<title>register&#45;&gt;quit</title>
<path fill="none" stroke="#ef4444" d="M1588.08,-211.89C1588.08,-211.89 2144.83,-211.89 2144.83,-211.89"/>
<polygon fill="#ef4444" stroke="#ef4444" points="2144.83,-214.69 2152.83,-211.89 2144.83,-209.09 2144.83,-214.69"/>
<text xml:space="preserve" text-anchor="middle" x="1900.86" y="-208.14" font-family="Helvetica,sans-Serif" font-size="10.00">SDL_QUIT</text>
</g>
<!-- scores&#45;&gt;menu -->
<g id="edge7" class="edge">
<title>scores&#45;&gt;menu</title>
<path fill="none" stroke="#334155" d="M899.35,-130.13C899.35,-130.13 729.58,-130.13 729.58,-130.13"/>
<polygon fill="#334155" stroke="#334155" points="729.58,-127.33 721.58,-130.13 729.58,-132.93 729.58,-127.33"/>
<text xml:space="preserve" text-anchor="middle" x="769.33" y="-102.14" font-family="Helvetica,sans-Serif" font-size="10.00">Back/Escape</text>
</g>
<!-- scores&#45;&gt;quit -->
<g id="edge8" class="edge">
<title>scores&#45;&gt;quit</title>
<path fill="none" stroke="#ef4444" d="M1096.8,-119.89C1096.8,-119.89 2137.92,-119.89 2137.92,-119.89"/>
<polygon fill="#ef4444" stroke="#ef4444" points="2137.92,-122.69 2145.92,-119.89 2137.92,-117.09 2137.92,-122.69"/>
<text xml:space="preserve" text-anchor="middle" x="1688.55" y="-123.14" font-family="Helvetica,sans-Serif" font-size="10.00">SDL_QUIT sets exitb</text>
</g>
<!-- gameplay&#45;&gt;gameplay -->
<g id="edge17" class="edge">
<title>gameplay&#45;&gt;gameplay</title>
<path fill="none" stroke="#2563eb" d="M1413.76,-291.89C1355.87,-291.89 1292.26,-291.89 1292.26,-291.89 1292.26,-291.89 1292.26,-247.89 1292.26,-247.89 1292.26,-247.89 1688.26,-247.89 1688.26,-247.89 1688.26,-247.89 1688.26,-268.28 1688.26,-268.28 1688.26,-268.28 1586.53,-268.28 1586.53,-268.28"/>
<polygon fill="#2563eb" stroke="#2563eb" points="1586.53,-265.48 1578.53,-268.28 1586.53,-271.08 1586.53,-265.48"/>
</g>
<!-- gameover -->
<g id="node8" class="node">
<title>gameover</title>
<ellipse fill="#fecaca" stroke="#334155" cx="1900.86" cy="-318.89" rx="122.68" ry="25.81"/>
<text xml:space="preserve" text-anchor="middle" x="1900.86" y="-321.74" font-family="Helvetica,sans-Serif" font-size="12.00">Game Over Screen</text>
<text xml:space="preserve" text-anchor="middle" x="1900.86" y="-307.49" font-family="Helvetica,sans-Serif" font-size="12.00">Try Again / Return to Menu</text>
</g>
<!-- gameplay&#45;&gt;gameover -->
<g id="edge15" class="edge">
<title>gameplay&#45;&gt;gameover</title>
<path fill="none" stroke="#ef4444" d="M1593.51,-304.64C1593.51,-304.64 1788.1,-304.64 1788.1,-304.64"/>
<polygon fill="#ef4444" stroke="#ef4444" points="1788.1,-307.44 1796.1,-304.64 1788.1,-301.84 1788.1,-307.44"/>
<text xml:space="preserve" text-anchor="middle" x="1688.55" y="-292.14" font-family="Helvetica,sans-Serif" font-size="10.00">playerFellOff or playerHitTrap</text>
</g>
<!-- gameplay&#45;&gt;quit -->
<g id="edge16" class="edge">
<title>gameplay&#45;&gt;quit</title>
<path fill="none" stroke="#ef4444" d="M1551.65,-260.09C1551.65,-260.09 2193.65,-260.09 2193.65,-260.09"/>
<polygon fill="#ef4444" stroke="#ef4444" points="2193.65,-262.89 2201.65,-260.09 2193.65,-257.29 2193.65,-262.89"/>
<text xml:space="preserve" text-anchor="middle" x="1900.86" y="-258.14" font-family="Helvetica,sans-Serif" font-size="10.00">SDL_QUIT</text>
</g>
<!-- gameover&#45;&gt;menu -->
<g id="edge19" class="edge">
<title>gameover&#45;&gt;menu</title>
<path fill="none" stroke="#334155" d="M1808.38,-336.23C1516.85,-336.23 636.26,-336.23 636.26,-336.23 636.26,-336.23 636.26,-180.4 636.26,-180.4"/>
<polygon fill="#334155" stroke="#334155" points="639.06,-180.4 636.26,-172.4 633.46,-180.4 639.06,-180.4"/>
<text xml:space="preserve" text-anchor="middle" x="1291.76" y="-414.89" font-family="Helvetica,sans-Serif" font-size="10.00">ReturnToMenu</text>
<text xml:space="preserve" text-anchor="middle" x="1291.76" y="-402.14" font-family="Helvetica,sans-Serif" font-size="10.00">resetGameplay; menu=false</text>
</g>
<!-- gameover&#45;&gt;gameplay -->
<g id="edge18" class="edge">
<title>gameover&#45;&gt;gameplay</title>
<path fill="none" stroke="#334155" d="M1778.5,-316.21C1778.5,-316.21 1584.92,-316.21 1584.92,-316.21"/>
<polygon fill="#334155" stroke="#334155" points="1584.92,-313.41 1576.92,-316.21 1584.92,-319.01 1584.92,-313.41"/>
<text xml:space="preserve" text-anchor="middle" x="1688.55" y="-340.89" font-family="Helvetica,sans-Serif" font-size="10.00">Try Again</text>
<text xml:space="preserve" text-anchor="middle" x="1688.55" y="-328.14" font-family="Helvetica,sans-Serif" font-size="10.00">resetGameplay; menu=true</text>
</g>
<!-- gameover&#45;&gt;quit -->
<g id="edge20" class="edge">
<title>gameover&#45;&gt;quit</title>
<path fill="none" stroke="#ef4444" d="M1901.26,-292.82C1901.26,-278.73 1901.26,-264.19 1901.26,-264.19 1901.26,-264.19 2202.44,-264.19 2202.44,-264.19"/>
<polygon fill="#ef4444" stroke="#ef4444" points="2202.44,-266.99 2210.44,-264.19 2202.44,-261.39 2202.44,-266.99"/>
<text xml:space="preserve" text-anchor="middle" x="2082.41" y="-309.14" font-family="Helvetica,sans-Serif" font-size="10.00">SDL_QUIT / exitb</text>
</g>
</g>
</svg>
