<?xml version="1.0" encoding="UTF-8" standalone="no"?>
<!DOCTYPE svg PUBLIC "-//W3C//DTD SVG 1.1//EN"
 "http://www.w3.org/Graphics/SVG/1.1/DTD/svg11.dtd">
<!-- Generated by graphviz version 14.1.5 (0)
 -->
<!-- Title: VariableDataFlow Pages: 1 -->
<svg width="3208pt" height="579pt"
 viewBox="0.00 0.00 3208.00 579.00" xmlns="http://www.w3.org/2000/svg" xmlns:xlink="http://www.w3.org/1999/xlink">
<g id="graph0" class="graph" transform="scale(1 1) rotate(0) translate(4 574.62)">
<title>VariableDataFlow</title>
<polygon fill="white" stroke="none" points="-4,4 -4,-574.62 3203.75,-574.62 3203.75,4 -4,4"/>
<text xml:space="preserve" text-anchor="middle" x="1599.88" y="-543.83" font-family="Helvetica,sans-Serif" font-size="24.00">Jumpa Verse &#45; Major Variable Dependency and Data Flow Map</text>
<!-- sdlhandles -->
<g id="node1" class="node">
<title>sdlhandles</title>
<path fill="#ccfbf1" stroke="#334155" d="M293.88,-336.5C293.88,-336.5 19.88,-336.5 19.88,-336.5 13.88,-336.5 7.88,-330.5 7.88,-324.5 7.88,-324.5 7.88,-289.5 7.88,-289.5 7.88,-283.5 13.88,-277.5 19.88,-277.5 19.88,-277.5 293.88,-277.5 293.88,-277.5 299.88,-277.5 305.88,-283.5 305.88,-289.5 305.88,-289.5 305.88,-324.5 305.88,-324.5 305.88,-330.5 299.88,-336.5 293.88,-336.5"/>
<text xml:space="preserve" text-anchor="middle" x="156.88" y="-323" font-family="Helvetica,sans-Serif" font-size="10.00">window: SDL_Window*</text>
<text xml:space="preserve" text-anchor="middle" x="156.88" y="-310.25" font-family="Helvetica,sans-Serif" font-size="10.00">renderer: SDL_Renderer*</text>
<text xml:space="preserve" text-anchor="middle" x="156.88" y="-297.5" font-family="Helvetica,sans-Serif" font-size="10.00">main.cpp local</text>
<text xml:space="preserve" text-anchor="middle" x="156.88" y="-284.75" font-family="Helvetica,sans-Serif" font-size="10.00">Created by init(), consumed by all rendering/input helpers</text>
</g>
<!-- globals -->
<g id="node2" class="node">
<title>globals</title>
<path fill="#fef9c3" stroke="#334155" d="M774.88,-330.12C774.88,-330.12 513.62,-330.12 513.62,-330.12 507.62,-330.12 501.62,-324.12 501.62,-318.12 501.62,-318.12 501.62,-295.88 501.62,-295.88 501.62,-289.88 507.62,-283.88 513.62,-283.88 513.62,-283.88 774.88,-283.88 774.88,-283.88 780.88,-283.88 786.88,-289.88 786.88,-295.88 786.88,-295.88 786.88,-318.12 786.88,-318.12 786.88,-324.12 780.88,-330.12 774.88,-330.12"/>
<text xml:space="preserve" text-anchor="middle" x="644.25" y="-316.62" font-family="Helvetica,sans-Serif" font-size="10.00">currentScreenWidth/currentScreenHeight: int</text>
<text xml:space="preserve" text-anchor="middle" x="644.25" y="-303.88" font-family="Helvetica,sans-Serif" font-size="10.00">Error_Handlers.cpp globals</text>
<text xml:space="preserve" text-anchor="middle" x="644.25" y="-291.12" font-family="Helvetica,sans-Serif" font-size="10.00">Updated by init()/getScreenSize(); drives scaling/layout</text>
</g>
<!-- sdlhandles&#45;&gt;globals -->
<g id="edge1" class="edge">
<title>sdlhandles&#45;&gt;globals</title>
<path fill="none" stroke="#ca8a04" stroke-dasharray="1,5" d="M306.08,-307C306.08,-307 491.97,-307 491.97,-307"/>
<polygon fill="#ca8a04" stroke="#ca8a04" points="491.97,-309.8 499.97,-307 491.97,-304.2 491.97,-309.8"/>
<text xml:space="preserve" text-anchor="middle" x="401.12" y="-310.25" font-family="Helvetica,sans-Serif" font-size="10.00">getScreenSize</text>
</g>
<!-- player -->
<g id="node8" class="node">
<title>player</title>
<path fill="#fee2e2" stroke="#334155" d="M1822.75,-162.12C1822.75,-162.12 1548.75,-162.12 1548.75,-162.12 1542.75,-162.12 1536.75,-156.12 1536.75,-150.12 1536.75,-150.12 1536.75,-127.88 1536.75,-127.88 1536.75,-121.88 1542.75,-115.88 1548.75,-115.88 1548.75,-115.88 1822.75,-115.88 1822.75,-115.88 1828.75,-115.88 1834.75,-121.88 1834.75,-127.88 1834.75,-127.88 1834.75,-150.12 1834.75,-150.12 1834.75,-156.12 1828.75,-162.12 1822.75,-162.12"/>
<text xml:space="preserve" text-anchor="middle" x="1685.75" y="-148.62" font-family="Helvetica,sans-Serif" font-size="10.00">player1: player</text>
<text xml:space="preserve" text-anchor="middle" x="1685.75" y="-135.88" font-family="Helvetica,sans-Serif" font-size="10.00">main.cpp local</text>
<text xml:space="preserve" text-anchor="middle" x="1685.75" y="-123.12" font-family="Helvetica,sans-Serif" font-size="10.00">character rect, gravity, jumpVelocity, onGround, fallOffest</text>
</g>
<!-- globals&#45;&gt;player -->
<g id="edge2" class="edge">
<title>globals&#45;&gt;player</title>
<path fill="none" stroke="#ca8a04" stroke-dasharray="1,5" d="M787.36,-290.54C1043.49,-290.54 1553.75,-290.54 1553.75,-290.54 1553.75,-290.54 1553.75,-171.86 1553.75,-171.86"/>
<polygon fill="#ca8a04" stroke="#ca8a04" points="1556.55,-171.86 1553.75,-163.86 1550.95,-171.86 1556.55,-171.86"/>
<text xml:space="preserve" text-anchor="middle" x="1214.5" y="-266.25" font-family="Helvetica,sans-Serif" font-size="10.00">scaledPlayerSize/right limit</text>
</g>
<!-- ground -->
<g id="node9" class="node">
<title>ground</title>
<path fill="#dcfce7" stroke="#334155" d="M1364.62,-76.12C1364.62,-76.12 1064.38,-76.12 1064.38,-76.12 1058.38,-76.12 1052.38,-70.12 1052.38,-64.12 1052.38,-64.12 1052.38,-41.88 1052.38,-41.88 1052.38,-35.88 1058.38,-29.88 1064.38,-29.88 1064.38,-29.88 1364.62,-29.88 1364.62,-29.88 1370.62,-29.88 1376.62,-35.88 1376.62,-41.88 1376.62,-41.88 1376.62,-64.12 1376.62,-64.12 1376.62,-70.12 1370.62,-76.12 1364.62,-76.12"/>
<text xml:space="preserve" text-anchor="middle" x="1214.5" y="-62.62" font-family="Helvetica,sans-Serif" font-size="10.00">ground: vector&lt;ground_Class&gt;</text>
<text xml:space="preserve" text-anchor="middle" x="1214.5" y="-49.88" font-family="Helvetica,sans-Serif" font-size="10.00">main.cpp local</text>
<text xml:space="preserve" text-anchor="middle" x="1214.5" y="-37.12" font-family="Helvetica,sans-Serif" font-size="10.00">Generated platforms; moved by camera; rendered every frame</text>
</g>
<!-- globals&#45;&gt;ground -->
<g id="edge3" class="edge">
<title>globals&#45;&gt;ground</title>
<path fill="none" stroke="#ca8a04" stroke-dasharray="1,5" d="M787.35,-287.21C908.2,-287.21 1061.75,-287.21 1061.75,-287.21 1061.75,-287.21 1061.75,-85.83 1061.75,-85.83"/>
<polygon fill="#ca8a04" stroke="#ca8a04" points="1064.55,-85.83 1061.75,-77.83 1058.95,-85.83 1064.55,-85.83"/>
<text xml:space="preserve" text-anchor="middle" x="917.38" y="-157.25" font-family="Helvetica,sans-Serif" font-size="10.00">scaledGroundTileSize/generation bounds</text>
</g>
<!-- trap -->
<g id="node10" class="node">
<title>trap</title>
<path fill="#ffedd5" stroke="#334155" d="M1382.25,-340.12C1382.25,-340.12 1046.75,-340.12 1046.75,-340.12 1040.75,-340.12 1034.75,-334.12 1034.75,-328.12 1034.75,-328.12 1034.75,-305.88 1034.75,-305.88 1034.75,-299.88 1040.75,-293.88 1046.75,-293.88 1046.75,-293.88 1382.25,-293.88 1382.25,-293.88 1388.25,-293.88 1394.25,-299.88 1394.25,-305.88 1394.25,-305.88 1394.25,-328.12 1394.25,-328.12 1394.25,-334.12 1388.25,-340.12 1382.25,-340.12"/>
<text xml:space="preserve" text-anchor="middle" x="1214.5" y="-326.62" font-family="Helvetica,sans-Serif" font-size="10.00">trap: vector&lt;trapSpike&gt;</text>
<text xml:space="preserve" text-anchor="middle" x="1214.5" y="-313.88" font-family="Helvetica,sans-Serif" font-size="10.00">main.cpp local</text>
<text xml:space="preserve" text-anchor="middle" x="1214.5" y="-301.12" font-family="Helvetica,sans-Serif" font-size="10.00">Generated hazards; moved by camera; collision checked and rendered</text>
</g>
<!-- globals&#45;&gt;trap -->
<g id="edge4" class="edge">
<title>globals&#45;&gt;trap</title>
<path fill="none" stroke="#ca8a04" stroke-dasharray="1,5" d="M787.04,-312C787.04,-312 1024.97,-312 1024.97,-312"/>
<polygon fill="#ca8a04" stroke="#ca8a04" points="1024.97,-314.8 1032.97,-312 1024.97,-309.2 1024.97,-314.8"/>
<text xml:space="preserve" text-anchor="middle" x="917.38" y="-317.25" font-family="Helvetica,sans-Serif" font-size="10.00">scaledTrapSize/render culling</text>
</g>
<!-- menuvar -->
<g id="node13" class="node">
<title>menuvar</title>
<path fill="#fae8ff" stroke="#334155" d="M3174.62,-414.12C3174.62,-414.12 2963.62,-414.12 2963.62,-414.12 2957.62,-414.12 2951.62,-408.12 2951.62,-402.12 2951.62,-402.12 2951.62,-379.88 2951.62,-379.88 2951.62,-373.88 2957.62,-367.88 2963.62,-367.88 2963.62,-367.88 3174.62,-367.88 3174.62,-367.88 3180.62,-367.88 3186.62,-373.88 3186.62,-379.88 3186.62,-379.88 3186.62,-402.12 3186.62,-402.12 3186.62,-408.12 3180.62,-414.12 3174.62,-414.12"/>
<text xml:space="preserve" text-anchor="middle" x="3069.12" y="-400.62" font-family="Helvetica,sans-Serif" font-size="10.00">menu: bool</text>
<text xml:space="preserve" text-anchor="middle" x="3069.12" y="-387.88" font-family="Helvetica,sans-Serif" font-size="10.00">main.cpp local</text>
<text xml:space="preserve" text-anchor="middle" x="3069.12" y="-375.12" font-family="Helvetica,sans-Serif" font-size="10.00">false =&gt; menu loop; true =&gt; gameplay loop</text>
</g>
<!-- globals&#45;&gt;menuvar -->
<g id="edge5" class="edge">
<title>globals&#45;&gt;menuvar</title>
<path fill="none" stroke="#ca8a04" stroke-dasharray="1,5" d="M643.75,-330.43C643.75,-360.58 643.75,-409.12 643.75,-409.12 643.75,-409.12 2941.81,-409.12 2941.81,-409.12"/>
<polygon fill="#ca8a04" stroke="#ca8a04" points="2941.81,-411.93 2949.81,-409.13 2941.81,-406.33 2941.81,-411.93"/>
<text xml:space="preserve" text-anchor="middle" x="1918" y="-435.25" font-family="Helvetica,sans-Serif" font-size="10.00">screen layout</text>
</g>
<!-- exitb -->
<g id="node3" class="node">
<title>exitb</title>
<path fill="#fee2e2" stroke="#334155" d="M788,-534.12C788,-534.12 500.5,-534.12 500.5,-534.12 494.5,-534.12 488.5,-528.12 488.5,-522.12 488.5,-522.12 488.5,-499.88 488.5,-499.88 488.5,-493.88 494.5,-487.88 500.5,-487.88 500.5,-487.88 788,-487.88 788,-487.88 794,-487.88 800,-493.88 800,-499.88 800,-499.88 800,-522.12 800,-522.12 800,-528.12 794,-534.12 788,-534.12"/>
<text xml:space="preserve" text-anchor="middle" x="644.25" y="-520.62" font-family="Helvetica,sans-Serif" font-size="10.00">exitb: bool</text>
<text xml:space="preserve" text-anchor="middle" x="644.25" y="-507.88" font-family="Helvetica,sans-Serif" font-size="10.00">main.cpp global extern in functions.h</text>
<text xml:space="preserve" text-anchor="middle" x="644.25" y="-495.12" font-family="Helvetica,sans-Serif" font-size="10.00">Global quit signal from menu/login/game&#45;over/score screens</text>
</g>
<!-- quit -->
<g id="node14" class="node">
<title>quit</title>
<path fill="#fee2e2" stroke="#334155" d="M1315.12,-515.12C1315.12,-515.12 1113.88,-515.12 1113.88,-515.12 1107.88,-515.12 1101.88,-509.12 1101.88,-503.12 1101.88,-503.12 1101.88,-480.88 1101.88,-480.88 1101.88,-474.88 1107.88,-468.88 1113.88,-468.88 1113.88,-468.88 1315.12,-468.88 1315.12,-468.88 1321.12,-468.88 1327.12,-474.88 1327.12,-480.88 1327.12,-480.88 1327.12,-503.12 1327.12,-503.12 1327.12,-509.12 1321.12,-515.12 1315.12,-515.12"/>
<text xml:space="preserve" text-anchor="middle" x="1214.5" y="-501.62" font-family="Helvetica,sans-Serif" font-size="10.00">quit: bool</text>
<text xml:space="preserve" text-anchor="middle" x="1214.5" y="-488.88" font-family="Helvetica,sans-Serif" font-size="10.00">main.cpp local</text>
<text xml:space="preserve" text-anchor="middle" x="1214.5" y="-476.12" font-family="Helvetica,sans-Serif" font-size="10.00">Terminates outer loop and triggers cleanup</text>
</g>
<!-- exitb&#45;&gt;quit -->
<g id="edge6" class="edge">
<title>exitb&#45;&gt;quit</title>
<path fill="none" stroke="#ca8a04" stroke-dasharray="1,5" d="M800.45,-501.5C800.45,-501.5 1092,-501.5 1092,-501.5"/>
<polygon fill="#ca8a04" stroke="#ca8a04" points="1092,-504.3 1100,-501.5 1092,-498.7 1092,-504.3"/>
<text xml:space="preserve" text-anchor="middle" x="917.38" y="-504.25" font-family="Helvetica,sans-Serif" font-size="10.00">quit propagation</text>
</g>
<!-- camdash -->
<g id="node4" class="node">
<title>camdash</title>
<path fill="#ffedd5" stroke="#334155" d="M301.75,-255.12C301.75,-255.12 12,-255.12 12,-255.12 6,-255.12 0,-249.12 0,-243.12 0,-243.12 0,-220.88 0,-220.88 0,-214.88 6,-208.88 12,-208.88 12,-208.88 301.75,-208.88 301.75,-208.88 307.75,-208.88 313.75,-214.88 313.75,-220.88 313.75,-220.88 313.75,-243.12 313.75,-243.12 313.75,-249.12 307.75,-255.12 301.75,-255.12"/>
<text xml:space="preserve" text-anchor="middle" x="156.88" y="-241.62" font-family="Helvetica,sans-Serif" font-size="10.00">cammeraDash: float</text>
<text xml:space="preserve" text-anchor="middle" x="156.88" y="-228.88" font-family="Helvetica,sans-Serif" font-size="10.00">main.cpp global extern</text>
<text xml:space="preserve" text-anchor="middle" x="156.88" y="-216.12" font-family="Helvetica,sans-Serif" font-size="10.00">Additional camera offset added before cameraMovmentObj()</text>
</g>
<!-- camoffset -->
<g id="node16" class="node">
<title>camoffset</title>
<path fill="#ffedd5" stroke="#334155" d="M778.62,-153.12C778.62,-153.12 509.88,-153.12 509.88,-153.12 503.88,-153.12 497.88,-147.12 497.88,-141.12 497.88,-141.12 497.88,-118.88 497.88,-118.88 497.88,-112.88 503.88,-106.88 509.88,-106.88 509.88,-106.88 778.62,-106.88 778.62,-106.88 784.62,-106.88 790.62,-112.88 790.62,-118.88 790.62,-118.88 790.62,-141.12 790.62,-141.12 790.62,-147.12 784.62,-153.12 778.62,-153.12"/>
<text xml:space="preserve" text-anchor="middle" x="644.25" y="-139.62" font-family="Helvetica,sans-Serif" font-size="10.00">cammera_offSet: float</text>
<text xml:space="preserve" text-anchor="middle" x="644.25" y="-126.88" font-family="Helvetica,sans-Serif" font-size="10.00">main.cpp local</text>
<text xml:space="preserve" text-anchor="middle" x="644.25" y="-114.12" font-family="Helvetica,sans-Serif" font-size="10.00">Decrements over time; scroll amount for platforms/traps</text>
</g>
<!-- camdash&#45;&gt;camoffset -->
<g id="edge7" class="edge">
<title>camdash&#45;&gt;camoffset</title>
<path fill="none" stroke="#ca8a04" stroke-dasharray="1,5" d="M306.75,-208.71C306.75,-181.91 306.75,-141.56 306.75,-141.56 306.75,-141.56 488.18,-141.56 488.18,-141.56"/>
<polygon fill="#ca8a04" stroke="#ca8a04" points="488.18,-144.36 496.18,-141.56 488.18,-138.76 488.18,-144.36"/>
<text xml:space="preserve" text-anchor="middle" x="401.12" y="-235.25" font-family="Helvetica,sans-Serif" font-size="10.00">added to camera movement</text>
</g>
<!-- username -->
<g id="node5" class="node">
<title>username</title>
<path fill="#fae8ff" stroke="#334155" d="M3187.75,-332.12C3187.75,-332.12 2950.5,-332.12 2950.5,-332.12 2944.5,-332.12 2938.5,-326.12 2938.5,-320.12 2938.5,-320.12 2938.5,-297.88 2938.5,-297.88 2938.5,-291.88 2944.5,-285.88 2950.5,-285.88 2950.5,-285.88 3187.75,-285.88 3187.75,-285.88 3193.75,-285.88 3199.75,-291.88 3199.75,-297.88 3199.75,-297.88 3199.75,-320.12 3199.75,-320.12 3199.75,-326.12 3193.75,-332.12 3187.75,-332.12"/>
<text xml:space="preserve" text-anchor="middle" x="3069.12" y="-318.62" font-family="Helvetica,sans-Serif" font-size="10.00">currentPlayerUsername: std::string</text>
<text xml:space="preserve" text-anchor="middle" x="3069.12" y="-305.88" font-family="Helvetica,sans-Serif" font-size="10.00">loginScreen.cpp global extern</text>
<text xml:space="preserve" text-anchor="middle" x="3069.12" y="-293.12" font-family="Helvetica,sans-Serif" font-size="10.00">Set after successful login; used when saving score</text>
</g>
<!-- csv -->
<g id="node19" class="node">
<title>csv</title>
<polygon fill="#f8fafc" stroke="#334155" points="2772.75,-319.12 2769.75,-323.12 2748.75,-323.12 2745.75,-319.12 2562.5,-319.12 2562.5,-272.88 2772.75,-272.88 2772.75,-319.12"/>
<text xml:space="preserve" text-anchor="middle" x="2667.62" y="-305.62" font-family="Helvetica,sans-Serif" font-size="10.00">player.csv / score.csv</text>
<text xml:space="preserve" text-anchor="middle" x="2667.62" y="-292.88" font-family="Helvetica,sans-Serif" font-size="10.00">Persistent CSV files</text>
<text xml:space="preserve" text-anchor="middle" x="2667.62" y="-280.12" font-family="Helvetica,sans-Serif" font-size="10.00">Login/register/scores/final score storage</text>
</g>
<!-- username&#45;&gt;csv -->
<g id="edge26" class="edge">
<title>username&#45;&gt;csv</title>
<path fill="none" stroke="#ca8a04" stroke-dasharray="1,5" d="M2938.21,-296.96C2938.21,-296.96 2782.47,-296.96 2782.47,-296.96"/>
<polygon fill="#ca8a04" stroke="#ca8a04" points="2782.47,-294.16 2774.47,-296.96 2782.47,-299.76 2782.47,-294.16"/>
<text xml:space="preserve" text-anchor="middle" x="2855.62" y="-281.25" font-family="Helvetica,sans-Serif" font-size="10.00">select row for player score</text>
</g>
<!-- textures -->
<g id="node6" class="node">
<title>textures</title>
<path fill="#ccfbf1" stroke="#334155" d="M773,-74.12C773,-74.12 515.5,-74.12 515.5,-74.12 509.5,-74.12 503.5,-68.12 503.5,-62.12 503.5,-62.12 503.5,-39.88 503.5,-39.88 503.5,-33.88 509.5,-27.88 515.5,-27.88 515.5,-27.88 773,-27.88 773,-27.88 779,-27.88 785,-33.88 785,-39.88 785,-39.88 785,-62.12 785,-62.12 785,-68.12 779,-74.12 773,-74.12"/>
<text xml:space="preserve" text-anchor="middle" x="644.25" y="-60.62" font-family="Helvetica,sans-Serif" font-size="10.00">groundTex/ugTex: SDL_Texture*</text>
<text xml:space="preserve" text-anchor="middle" x="644.25" y="-47.88" font-family="Helvetica,sans-Serif" font-size="10.00">main.cpp local</text>
<text xml:space="preserve" text-anchor="middle" x="644.25" y="-35.12" font-family="Helvetica,sans-Serif" font-size="10.00">Shared texture handles stored in ground_Class objects</text>
</g>
<!-- textures&#45;&gt;ground -->
<g id="edge8" class="edge">
<title>textures&#45;&gt;ground</title>
<path fill="none" stroke="#ca8a04" stroke-dasharray="1,5" d="M785.21,-52C785.21,-52 1042.44,-52 1042.44,-52"/>
<polygon fill="#ca8a04" stroke="#ca8a04" points="1042.44,-54.8 1050.44,-52 1042.44,-49.2 1042.44,-54.8"/>
<text xml:space="preserve" text-anchor="middle" x="917.38" y="-52.25" font-family="Helvetica,sans-Serif" font-size="10.00">shared by each ground_Class</text>
</g>
<!-- font -->
<g id="node7" class="node">
<title>font</title>
<path fill="#ccfbf1" stroke="#334155" d="M1327.88,-404.12C1327.88,-404.12 1101.12,-404.12 1101.12,-404.12 1095.12,-404.12 1089.12,-398.12 1089.12,-392.12 1089.12,-392.12 1089.12,-369.88 1089.12,-369.88 1089.12,-363.88 1095.12,-357.88 1101.12,-357.88 1101.12,-357.88 1327.88,-357.88 1327.88,-357.88 1333.88,-357.88 1339.88,-363.88 1339.88,-369.88 1339.88,-369.88 1339.88,-392.12 1339.88,-392.12 1339.88,-398.12 1333.88,-404.12 1327.88,-404.12"/>
<text xml:space="preserve" text-anchor="middle" x="1214.5" y="-390.62" font-family="Helvetica,sans-Serif" font-size="10.00">font: TTF_Font*</text>
<text xml:space="preserve" text-anchor="middle" x="1214.5" y="-377.88" font-family="Helvetica,sans-Serif" font-size="10.00">main.cpp local</text>
<text xml:space="preserve" text-anchor="middle" x="1214.5" y="-365.12" font-family="Helvetica,sans-Serif" font-size="10.00">Passed to menu, score, game&#45;over, text screens</text>
</g>
<!-- score -->
<g id="node11" class="node">
<title>score</title>
<path fill="#fef9c3" stroke="#334155" d="M1796.88,-253.12C1796.88,-253.12 1574.62,-253.12 1574.62,-253.12 1568.62,-253.12 1562.62,-247.12 1562.62,-241.12 1562.62,-241.12 1562.62,-218.88 1562.62,-218.88 1562.62,-212.88 1568.62,-206.88 1574.62,-206.88 1574.62,-206.88 1796.88,-206.88 1796.88,-206.88 1802.88,-206.88 1808.88,-212.88 1808.88,-218.88 1808.88,-218.88 1808.88,-241.12 1808.88,-241.12 1808.88,-247.12 1802.88,-253.12 1796.88,-253.12"/>
<text xml:space="preserve" text-anchor="middle" x="1685.75" y="-239.62" font-family="Helvetica,sans-Serif" font-size="10.00">score: Score</text>
<text xml:space="preserve" text-anchor="middle" x="1685.75" y="-226.88" font-family="Helvetica,sans-Serif" font-size="10.00">main.cpp local</text>
<text xml:space="preserve" text-anchor="middle" x="1685.75" y="-214.12" font-family="Helvetica,sans-Serif" font-size="10.00">score/timeAccumulator; increments while alive</text>
</g>
<!-- font&#45;&gt;score -->
<g id="edge10" class="edge">
<title>font&#45;&gt;score</title>
<path fill="none" stroke="#ca8a04" stroke-dasharray="1,5" d="M1340.1,-361.21C1467.1,-361.21 1644.75,-361.21 1644.75,-361.21 1644.75,-361.21 1644.75,-262.97 1644.75,-262.97"/>
<polygon fill="#ca8a04" stroke="#ca8a04" points="1647.55,-262.97 1644.75,-254.97 1641.95,-262.97 1647.55,-262.97"/>
<text xml:space="preserve" text-anchor="middle" x="1465.5" y="-325.25" font-family="Helvetica,sans-Serif" font-size="10.00">renderScore</text>
</g>
<!-- gameover -->
<g id="node12" class="node">
<title>gameover</title>
<path fill="#fecaca" stroke="#334155" d="M2312.75,-312.12C2312.75,-312.12 2013.25,-312.12 2013.25,-312.12 2007.25,-312.12 2001.25,-306.12 2001.25,-300.12 2001.25,-300.12 2001.25,-277.88 2001.25,-277.88 2001.25,-271.88 2007.25,-265.88 2013.25,-265.88 2013.25,-265.88 2312.75,-265.88 2312.75,-265.88 2318.75,-265.88 2324.75,-271.88 2324.75,-277.88 2324.75,-277.88 2324.75,-300.12 2324.75,-300.12 2324.75,-306.12 2318.75,-312.12 2312.75,-312.12"/>
<text xml:space="preserve" text-anchor="middle" x="2163" y="-298.62" font-family="Helvetica,sans-Serif" font-size="10.00">gameOver: GameOver</text>
<text xml:space="preserve" text-anchor="middle" x="2163" y="-285.88" font-family="Helvetica,sans-Serif" font-size="10.00">main.cpp local</text>
<text xml:space="preserve" text-anchor="middle" x="2163" y="-273.12" font-family="Helvetica,sans-Serif" font-size="10.00">active/deathCause/savedFinalScore control game&#45;over subloop</text>
</g>
<!-- font&#45;&gt;gameover -->
<g id="edge11" class="edge">
<title>font&#45;&gt;gameover</title>
<path fill="none" stroke="#ca8a04" stroke-dasharray="1,5" d="M1339.93,-364.54C1597.65,-364.54 2162.75,-364.54 2162.75,-364.54 2162.75,-364.54 2162.75,-322 2162.75,-322"/>
<polygon fill="#ca8a04" stroke="#ca8a04" points="2165.55,-322 2162.75,-314 2159.95,-322 2165.55,-322"/>
<text xml:space="preserve" text-anchor="middle" x="1685.75" y="-353.25" font-family="Helvetica,sans-Serif" font-size="10.00">runGameOverScreen</text>
</g>
<!-- font&#45;&gt;menuvar -->
<g id="edge9" class="edge">
<title>font&#45;&gt;menuvar</title>
<path fill="none" stroke="#ca8a04" stroke-dasharray="1,5" d="M1340.15,-392.04C1340.15,-392.04 2941.8,-392.04 2941.8,-392.04"/>
<polygon fill="#ca8a04" stroke="#ca8a04" points="2941.8,-394.84 2949.8,-392.04 2941.8,-389.24 2941.8,-394.84"/>
<text xml:space="preserve" text-anchor="middle" x="2163" y="-394.25" font-family="Helvetica,sans-Serif" font-size="10.00">text rendering</text>
</g>
<!-- player&#45;&gt;gameover -->
<g id="edge23" class="edge">
<title>player&#45;&gt;gameover</title>
<path fill="none" stroke="#ca8a04" stroke-dasharray="1,5" d="M1821.75,-162.38C1821.75,-199.98 1821.75,-269.75 1821.75,-269.75 1821.75,-269.75 1991.36,-269.75 1991.36,-269.75"/>
<polygon fill="#ca8a04" stroke="#ca8a04" points="1991.36,-272.55 1999.36,-269.75 1991.36,-266.95 1991.36,-272.55"/>
<text xml:space="preserve" text-anchor="middle" x="1918" y="-184.25" font-family="Helvetica,sans-Serif" font-size="10.00">playerFellOff/playerHitTrap</text>
</g>
<!-- ground&#45;&gt;player -->
<g id="edge21" class="edge">
<title>ground&#45;&gt;player</title>
<path fill="none" stroke="#ca8a04" stroke-dasharray="1,5" d="M1369.75,-76.53C1369.75,-97.5 1369.75,-124.88 1369.75,-124.88 1369.75,-124.88 1527.03,-124.88 1527.03,-124.88"/>
<polygon fill="#ca8a04" stroke="#ca8a04" points="1527.03,-127.68 1535.03,-124.88 1527.03,-122.08 1527.03,-127.68"/>
<text xml:space="preserve" text-anchor="middle" x="1465.5" y="-71.25" font-family="Helvetica,sans-Serif" font-size="10.00">landing collision</text>
</g>
<!-- trap&#45;&gt;gameover -->
<g id="edge22" class="edge">
<title>trap&#45;&gt;gameover</title>
<path fill="none" stroke="#ca8a04" stroke-dasharray="1,5" d="M1394.58,-303C1394.58,-303 1991.51,-303 1991.51,-303"/>
<polygon fill="#ca8a04" stroke="#ca8a04" points="1991.51,-305.8 1999.51,-303 1991.51,-300.2 1991.51,-305.8"/>
<text xml:space="preserve" text-anchor="middle" x="1685.75" y="-292.25" font-family="Helvetica,sans-Serif" font-size="10.00">playerHitTrap</text>
</g>
<!-- score&#45;&gt;gameover -->
<g id="edge24" class="edge">
<title>score&#45;&gt;gameover</title>
<path fill="none" stroke="#ca8a04" stroke-dasharray="1,5" d="M1726.75,-253.6C1726.75,-263.88 1726.75,-273.62 1726.75,-273.62 1726.75,-273.62 1991.35,-273.62 1991.35,-273.62"/>
<polygon fill="#ca8a04" stroke="#ca8a04" points="1991.35,-276.43 1999.35,-273.63 1991.35,-270.83 1991.35,-276.43"/>
<text xml:space="preserve" text-anchor="middle" x="1918" y="-249.25" font-family="Helvetica,sans-Serif" font-size="10.00">score.value on trigger</text>
</g>
<!-- gameover&#45;&gt;csv -->
<g id="edge25" class="edge">
<title>gameover&#45;&gt;csv</title>
<path fill="none" stroke="#ca8a04" stroke-dasharray="1,5" d="M2325.1,-292.5C2325.1,-292.5 2552.65,-292.5 2552.65,-292.5"/>
<polygon fill="#ca8a04" stroke="#ca8a04" points="2552.65,-295.3 2560.65,-292.5 2552.65,-289.7 2552.65,-295.3"/>
<text xml:space="preserve" text-anchor="middle" x="2443.62" y="-298.25" font-family="Helvetica,sans-Serif" font-size="10.00">saveFinalScore/saveLoggedInPlayerScore</text>
</g>
<!-- dt -->
<g id="node15" class="node">
<title>dt</title>
<path fill="#ffedd5" stroke="#334155" d="M288.62,-153.12C288.62,-153.12 25.12,-153.12 25.12,-153.12 19.12,-153.12 13.12,-147.12 13.12,-141.12 13.12,-141.12 13.12,-118.88 13.12,-118.88 13.12,-112.88 19.12,-106.88 25.12,-106.88 25.12,-106.88 288.62,-106.88 288.62,-106.88 294.62,-106.88 300.62,-112.88 300.62,-118.88 300.62,-118.88 300.62,-141.12 300.62,-141.12 300.62,-147.12 294.62,-153.12 288.62,-153.12"/>
<text xml:space="preserve" text-anchor="middle" x="156.88" y="-139.62" font-family="Helvetica,sans-Serif" font-size="10.00">deltaTime: float</text>
<text xml:space="preserve" text-anchor="middle" x="156.88" y="-126.88" font-family="Helvetica,sans-Serif" font-size="10.00">main.cpp local per frame</text>
<text xml:space="preserve" text-anchor="middle" x="156.88" y="-114.12" font-family="Helvetica,sans-Serif" font-size="10.00">Feeds camera, physics, score, menu preview animation</text>
</g>
<!-- dt&#45;&gt;player -->
<g id="edge13" class="edge">
<title>dt&#45;&gt;player</title>
<path fill="none" stroke="#ca8a04" stroke-dasharray="1,5" d="M156.75,-153.4C156.75,-173.07 156.75,-198 156.75,-198 156.75,-198 1545.75,-198 1545.75,-198 1545.75,-198 1545.75,-171.83 1545.75,-171.83"/>
<polygon fill="#ca8a04" stroke="#ca8a04" points="1548.55,-171.83 1545.75,-163.83 1542.95,-171.83 1548.55,-171.83"/>
<text xml:space="preserve" text-anchor="middle" x="917.38" y="-3.25" font-family="Helvetica,sans-Serif" font-size="10.00">gravity integration</text>
</g>
<!-- dt&#45;&gt;score -->
<g id="edge14" class="edge">
<title>dt&#45;&gt;score</title>
<path fill="none" stroke="#ca8a04" stroke-dasharray="1,5" d="M300.78,-130C391.94,-130 492.75,-130 492.75,-130 492.75,-130 492.75,-231 492.75,-231 492.75,-231 1552.78,-231 1552.78,-231"/>
<polygon fill="#ca8a04" stroke="#ca8a04" points="1552.78,-233.8 1560.78,-231 1552.78,-228.2 1552.78,-233.8"/>
<text xml:space="preserve" text-anchor="middle" x="917.38" y="-202.25" font-family="Helvetica,sans-Serif" font-size="10.00">timeAccumulator</text>
</g>
<!-- dt&#45;&gt;camoffset -->
<g id="edge12" class="edge">
<title>dt&#45;&gt;camoffset</title>
<path fill="none" stroke="#ca8a04" stroke-dasharray="1,5" d="M300.8,-118.44C300.8,-118.44 488.14,-118.44 488.14,-118.44"/>
<polygon fill="#ca8a04" stroke="#ca8a04" points="488.14,-121.24 496.14,-118.44 488.14,-115.64 488.14,-121.24"/>
<text xml:space="preserve" text-anchor="middle" x="401.12" y="-133.25" font-family="Helvetica,sans-Serif" font-size="10.00">camera decrement</text>
</g>
<!-- camoffset&#45;&gt;player -->
<g id="edge18" class="edge">
<title>camoffset&#45;&gt;player</title>
<path fill="none" stroke="#ca8a04" stroke-dasharray="1,5" d="M790.99,-133.88C790.99,-133.88 1526.94,-133.88 1526.94,-133.88"/>
<polygon fill="#ca8a04" stroke="#ca8a04" points="1526.94,-136.68 1534.94,-133.88 1526.94,-131.08 1526.94,-136.68"/>
<text xml:space="preserve" text-anchor="middle" x="1214.5" y="-115.25" font-family="Helvetica,sans-Serif" font-size="10.00">fallOffest assignment</text>
</g>
<!-- camoffset&#45;&gt;ground -->
<g id="edge19" class="edge">
<title>camoffset&#45;&gt;ground</title>
<path fill="none" stroke="#ca8a04" stroke-dasharray="1,5" d="M790.84,-111.38C909.41,-111.38 1056.75,-111.38 1056.75,-111.38 1056.75,-111.38 1056.75,-85.92 1056.75,-85.92"/>
<polygon fill="#ca8a04" stroke="#ca8a04" points="1059.55,-85.92 1056.75,-77.92 1053.95,-85.92 1059.55,-85.92"/>
<text xml:space="preserve" text-anchor="middle" x="917.38" y="-88.25" font-family="Helvetica,sans-Serif" font-size="10.00">cameraMovmentObj</text>
</g>
<!-- camoffset&#45;&gt;trap -->
<g id="edge20" class="edge">
<title>camoffset&#45;&gt;trap</title>
<path fill="none" stroke="#ca8a04" stroke-dasharray="1,5" d="M791.02,-148C904.99,-148 1043.75,-148 1043.75,-148 1043.75,-148 1043.75,-283.99 1043.75,-283.99"/>
<polygon fill="#ca8a04" stroke="#ca8a04" points="1040.95,-283.99 1043.75,-291.99 1046.55,-283.99 1040.95,-283.99"/>
<text xml:space="preserve" text-anchor="middle" x="917.38" y="-238.25" font-family="Helvetica,sans-Serif" font-size="10.00">cameraMovmentObj</text>
</g>
<!-- keyboard -->
<g id="node17" class="node">
<title>keyboard</title>
<path fill="#fae8ff" stroke="#334155" d="M1351.12,-189.12C1351.12,-189.12 1077.88,-189.12 1077.88,-189.12 1071.88,-189.12 1065.88,-183.12 1065.88,-177.12 1065.88,-177.12 1065.88,-154.88 1065.88,-154.88 1065.88,-148.88 1071.88,-142.88 1077.88,-142.88 1077.88,-142.88 1351.12,-142.88 1351.12,-142.88 1357.12,-142.88 1363.12,-148.88 1363.12,-154.88 1363.12,-154.88 1363.12,-177.12 1363.12,-177.12 1363.12,-183.12 1357.12,-189.12 1351.12,-189.12"/>
<text xml:space="preserve" text-anchor="middle" x="1214.5" y="-175.62" font-family="Helvetica,sans-Serif" font-size="10.00">keyboardState: const Uint8*</text>
<text xml:space="preserve" text-anchor="middle" x="1214.5" y="-162.88" font-family="Helvetica,sans-Serif" font-size="10.00">main.cpp local</text>
<text xml:space="preserve" text-anchor="middle" x="1214.5" y="-150.12" font-family="Helvetica,sans-Serif" font-size="10.00">SDL_GetKeyboardState snapshot used by physicsDevelop</text>
</g>
<!-- keyboard&#45;&gt;player -->
<g id="edge15" class="edge">
<title>keyboard&#45;&gt;player</title>
<path fill="none" stroke="#ca8a04" stroke-dasharray="1,5" d="M1363.61,-152.5C1363.61,-152.5 1526.89,-152.5 1526.89,-152.5"/>
<polygon fill="#ca8a04" stroke="#ca8a04" points="1526.89,-155.3 1534.89,-152.5 1526.89,-149.7 1526.89,-155.3"/>
<text xml:space="preserve" text-anchor="middle" x="1465.5" y="-169.25" font-family="Helvetica,sans-Serif" font-size="10.00">jump/down/dash/back</text>
</g>
<!-- event -->
<g id="node18" class="node">
<title>event</title>
<path fill="#fae8ff" stroke="#334155" d="M265,-501.12C265,-501.12 48.75,-501.12 48.75,-501.12 42.75,-501.12 36.75,-495.12 36.75,-489.12 36.75,-489.12 36.75,-466.88 36.75,-466.88 36.75,-460.88 42.75,-454.88 48.75,-454.88 48.75,-454.88 265,-454.88 265,-454.88 271,-454.88 277,-460.88 277,-466.88 277,-466.88 277,-489.12 277,-489.12 277,-495.12 271,-501.12 265,-501.12"/>
<text xml:space="preserve" text-anchor="middle" x="156.88" y="-487.62" font-family="Helvetica,sans-Serif" font-size="10.00">eventManager/event: SDL_Event</text>
<text xml:space="preserve" text-anchor="middle" x="156.88" y="-474.88" font-family="Helvetica,sans-Serif" font-size="10.00">main/menu/screens local</text>
<text xml:space="preserve" text-anchor="middle" x="156.88" y="-462.12" font-family="Helvetica,sans-Serif" font-size="10.00">Branching input: quit, mouse, key, text, wheel</text>
</g>
<!-- event&#45;&gt;exitb -->
<g id="edge17" class="edge">
<title>event&#45;&gt;exitb</title>
<path fill="none" stroke="#ca8a04" stroke-dasharray="1,5" d="M277.35,-494.5C277.35,-494.5 478.82,-494.5 478.82,-494.5"/>
<polygon fill="#ca8a04" stroke="#ca8a04" points="478.82,-497.3 486.82,-494.5 478.82,-491.7 478.82,-497.3"/>
<text xml:space="preserve" text-anchor="middle" x="401.12" y="-503.25" font-family="Helvetica,sans-Serif" font-size="10.00">screens set global</text>
</g>
<!-- event&#45;&gt;quit -->
<g id="edge16" class="edge">
<title>event&#45;&gt;quit</title>
<path fill="none" stroke="#ca8a04" stroke-dasharray="1,5" d="M277.43,-478.38C277.43,-478.38 1092.09,-478.38 1092.09,-478.38"/>
<polygon fill="#ca8a04" stroke="#ca8a04" points="1092.09,-481.18 1100.09,-478.38 1092.09,-475.58 1092.09,-481.18"/>
<text xml:space="preserve" text-anchor="middle" x="644.25" y="-460.25" font-family="Helvetica,sans-Serif" font-size="10.00">SDL_QUIT</text>
</g>
<!-- csv&#45;&gt;username -->
<g id="edge27" class="edge">
<title>csv&#45;&gt;username</title>
<path fill="none" stroke="#ca8a04" stroke-dasharray="1,5" d="M2773.11,-308.04C2773.11,-308.04 2928.63,-308.04 2928.63,-308.04"/>
<polygon fill="#ca8a04" stroke="#ca8a04" points="2928.63,-310.84 2936.63,-308.04 2928.63,-305.24 2928.63,-310.84"/>
<text xml:space="preserve" text-anchor="middle" x="2855.62" y="-317.25" font-family="Helvetica,sans-Serif" font-size="10.00">validateLogin</text>
</g>
<!-- csv&#45;&gt;menuvar -->
<g id="edge28" class="edge">
<title>csv&#45;&gt;menuvar</title>
<path fill="none" stroke="#ca8a04" stroke-dasharray="1,5" d="M2667.75,-319.39C2667.75,-344.23 2667.75,-379.96 2667.75,-379.96 2667.75,-379.96 2941.63,-379.96 2941.63,-379.96"/>
<polygon fill="#ca8a04" stroke="#ca8a04" points="2941.63,-382.76 2949.63,-379.96 2941.63,-377.16 2941.63,-382.76"/>
<text xml:space="preserve" text-anchor="middle" x="2855.62" y="-362.25" font-family="Helvetica,sans-Serif" font-size="10.00">score menu rows</text>
</g>
</g>
</svg>
